<?xml version="1.0" encoding="UTF-8" standalone="no"?>
<svg
   xmlns:dc="http://purl.org/dc/elements/1.1/"
   xmlns:cc="http://creativecommons.org/ns#"
   xmlns:rdf="http://www.w3.org/1999/02/22-rdf-syntax-ns#"
   xmlns:svg="http://www.w3.org/2000/svg"
   xmlns="http://www.w3.org/2000/svg"
   xmlns:sodipodi="http://sodipodi.sourceforge.net/DTD/sodipodi-0.dtd"
   xmlns:inkscape="http://www.inkscape.org/namespaces/inkscape"
   id="svg8"
   version="1.1"
   viewBox="0 0 545.22326 267.18987"
   height="1009.8515"
   width="2060.6863"
   sodipodi:docname="banner.svg"
   inkscape:version="0.92.4 5da689c313, 2019-01-14">
  <sodipodi:namedview
     pagecolor="#ffffff"
     bordercolor="#666666"
     borderopacity="1"
     objecttolerance="10"
     gridtolerance="10"
     guidetolerance="10"
     inkscape:pageopacity="0"
     inkscape:pageshadow="2"
     inkscape:window-width="474"
     inkscape:window-height="461"
     id="namedview39"
     showgrid="false"
     inkscape:zoom="0.10603068"
     inkscape:cx="-467.22537"
     inkscape:cy="-30.932785"
     inkscape:window-x="924"
     inkscape:window-y="111"
     inkscape:window-maximized="0"
     inkscape:current-layer="svg8"
     fit-margin-top="0"
     fit-margin-left="0"
     fit-margin-right="0"
     fit-margin-bottom="0"
     inkscape:snap-global="false" />
  <defs
     id="defs2" />
  <metadata
     id="metadata5">
    <rdf:RDF>
      <cc:Work
         rdf:about="">
        <dc:format>image/svg+xml</dc:format>
        <dc:type
           rdf:resource="http://purl.org/dc/dcmitype/StillImage" />
        <dc:title></dc:title>
      </cc:Work>
    </rdf:RDF>
  </metadata>
  <rect
     style="opacity:1;fill:#ffffff;fill-opacity:1;fill-rule:nonzero;stroke:none;stroke-width:1.20375359;stroke-linecap:round;stroke-linejoin:miter;stroke-miterlimit:4;stroke-dasharray:none;stroke-opacity:1;paint-order:normal"
     id="rect919-6"
     width="486.99554"
     height="267.18988"
     x="-2.646978e-23"
     y="0" />
  <g
     id="g1178"
     transform="translate(-21.166667,13.229165)">
    <g
       transform="matrix(0.88357939,0,0,0.88357939,30.308653,-0.99155889)"
       id="text912-4"
       style="font-style:normal;font-weight:normal;font-size:120.74987793px;line-height:0.89999998;font-family:sans-serif;letter-spacing:0px;word-spacing:0px;opacity:0.08800001;fill:#000000;fill-opacity:1;stroke:none;stroke-width:3.01874661"
       aria-label="sds">
      <path
         id="path879"
         style="font-style:normal;font-variant:normal;font-weight:normal;font-stretch:normal;font-family:'Akzidenz-Grotesk BQ Super';-inkscape-font-specification:'Akzidenz-Grotesk BQ Super';text-align:end;text-anchor:end;stroke-width:3.01874661"
         d="m -171.69932,110.39509 c 0,-9.90149 -6.76199,-14.731483 -9.90149,-16.301232 -3.98474,-2.052748 -9.29774,-2.897997 -18.47473,-5.192245 -3.01874,-0.724499 -5.43374,-1.207498 -6.52049,-1.811248 -0.36225,-0.12075 -1.6905,-0.845249 -1.6905,-2.414997 0,-0.60375 0.36225,-1.931998 1.81125,-2.656498 1.32825,-0.603749 3.01875,-0.603749 3.50175,-0.603749 7.60724,0 14.24848,4.829995 16.05973,6.037494 l 13.40324,-12.195738 c -2.05275,-1.569748 -3.74325,-2.777247 -6.0375,-3.984746 -6.76199,-3.501746 -16.30123,-5.071495 -23.78772,-5.071495 -14.00699,0 -21.13123,5.192245 -24.75373,10.26374 -1.08675,1.569748 -3.62249,5.675244 -3.62249,11.108989 0,2.656497 0.60374,5.071495 1.69049,7.486492 2.77725,5.916743 7.245,8.210993 13.04099,10.142993 4.95075,1.6905 10.86749,2.89799 12.31649,3.13949 4.70924,0.84525 7.48649,0.60375 9.05624,3.01875 0.12075,0.12075 0.483,0.7245 0.483,1.449 0,0.84525 -0.60375,2.415 -2.415,3.26025 -1.56975,0.7245 -3.50175,0.7245 -4.10549,0.7245 -7.60725,0 -13.76549,-3.864 -15.81824,-5.313 -1.2075,-0.966 -2.29425,-1.932 -3.50175,-3.01875 l -14.00698,12.67874 c 2.29425,1.6905 4.46774,3.50175 6.88274,4.95075 7.84874,4.95074 17.38798,7.60724 26.68572,7.60724 3.381,0 20.04448,-0.2415 27.16873,-13.16174 1.81125,-3.26025 2.53574,-6.52049 2.53574,-10.14299 z"
         inkscape:connector-curvature="0" />
      <path
         id="path881"
         style="font-style:normal;font-variant:normal;font-weight:normal;font-stretch:normal;font-family:'Akzidenz-Grotesk BQ Super';-inkscape-font-specification:'Akzidenz-Grotesk BQ Super';text-align:end;text-anchor:end;stroke-width:3.01874661"
         d="M -99.128661,131.28482 V 46.035407 h -24.753729 v 27.047972 c -1.69049,-1.569748 -2.29424,-2.052748 -3.38099,-2.777247 -4.95075,-3.260247 -10.50524,-3.380996 -12.43724,-3.380996 -16.66348,0 -23.30473,12.437237 -25.23672,17.629482 -2.1735,6.037494 -2.1735,11.833488 -2.1735,14.006986 -0.12075,3.622496 0.2415,22.580226 14.61073,30.791216 2.1735,1.32825 6.88275,3.50175 13.52399,3.50175 4.34699,0 9.65999,-0.966 13.16174,-3.50175 1.20749,-0.966 2.29424,-2.29425 2.53574,-2.53574 l 0.12075,4.46774 z M -123.27864,99.769102 c 0,4.588498 -0.36225,10.505238 -4.70924,13.523988 -0.60375,0.483 -2.415,1.56975 -4.83,1.56975 -2.29424,0 -4.82999,-1.08675 -6.27899,-2.6565 -2.898,-3.01875 -3.50175,-8.45249 -3.50175,-12.316488 0,-7.244992 1.56975,-11.229738 4.347,-13.403236 1.449,-1.086749 3.38099,-1.811248 5.19224,-1.811248 1.6905,0 5.5545,0.724499 7.84875,4.829995 1.69049,3.139497 1.93199,6.761993 1.93199,10.263739 z"
         inkscape:connector-curvature="0" />
      <path
         id="path883"
         style="font-style:normal;font-variant:normal;font-weight:normal;font-stretch:normal;font-family:'Akzidenz-Grotesk BQ Super';-inkscape-font-specification:'Akzidenz-Grotesk BQ Super';text-align:end;text-anchor:end;stroke-width:3.01874661"
         d="m -30.784459,110.39509 c 0,-9.90149 -6.761993,-14.731483 -9.90149,-16.301232 -3.984746,-2.052748 -9.297741,-2.897997 -18.474731,-5.192245 -3.018747,-0.724499 -5.433745,-1.207498 -6.520494,-1.811248 -0.362249,-0.12075 -1.690498,-0.845249 -1.690498,-2.414997 0,-0.60375 0.36225,-1.931998 1.811248,-2.656498 1.328249,-0.603749 3.018747,-0.603749 3.501747,-0.603749 7.607242,0 14.248485,4.829995 16.059733,6.037494 l 13.403237,-12.195738 c -2.052748,-1.569748 -3.743246,-2.777247 -6.037494,-3.984746 -6.761993,-3.501746 -16.301234,-5.071495 -23.787726,-5.071495 -14.006986,0 -21.131229,5.192245 -24.753725,10.26374 -1.086749,1.569748 -3.622496,5.675244 -3.622496,11.108989 0,2.656497 0.603749,5.071495 1.690498,7.486492 2.777247,5.916743 7.244993,8.210993 13.040987,10.142993 4.950745,1.6905 10.867489,2.89799 12.316487,3.13949 4.709245,0.84525 7.486493,0.60375 9.056241,3.01875 0.12075,0.12075 0.483,0.7245 0.483,1.449 0,0.84525 -0.60375,2.415 -2.414998,3.26025 -1.569748,0.7245 -3.501746,0.7245 -4.105496,0.7245 -7.607242,0 -13.765486,-3.864 -15.818234,-5.313 -1.207499,-0.966 -2.294248,-1.932 -3.501746,-3.01875 l -14.006986,12.67874 c 2.294248,1.6905 4.467745,3.50175 6.882743,4.95075 7.848742,4.95074 17.387982,7.60724 26.685723,7.60724 3.380997,0 20.04448,-0.2415 27.168722,-13.16174 1.811249,-3.26025 2.535748,-6.52049 2.535748,-10.14299 z"
         inkscape:connector-curvature="0" />
    </g>
    <g
       transform="matrix(0.88357939,0,0,0.88357939,30.308653,-0.99155889)"
       id="text828"
       style="font-style:normal;font-weight:normal;font-size:120.74987793px;line-height:0.89999998;font-family:sans-serif;letter-spacing:0px;word-spacing:0px;opacity:0.08800001;fill:#000000;fill-opacity:1;stroke:none;stroke-width:3.01874661"
       aria-label="sds">
      <path
         id="path886"
         style="font-style:normal;font-variant:normal;font-weight:normal;font-stretch:normal;font-family:'Akzidenz-Grotesk BQ Super';-inkscape-font-specification:'Akzidenz-Grotesk BQ Super';text-align:end;text-anchor:end;stroke-width:3.01874661"
         d="m -270.54551,36.260421 c 0,-9.90149 -6.762,-14.731485 -9.90149,-16.301233 -3.98475,-2.052748 -9.29774,-2.897997 -18.47474,-5.192245 -3.01874,-0.724499 -5.43374,-1.207499 -6.52049,-1.811248 -0.36225,-0.12075 -1.6905,-0.845249 -1.6905,-2.414998 0,-0.603749 0.36225,-1.9319976 1.81125,-2.6564969 1.32825,-0.6037494 3.01875,-0.6037494 3.50175,-0.6037494 7.60724,0 14.24848,4.8299953 16.05973,6.0374943 l 13.40324,-12.1957381 c -2.05275,-1.56974837 -3.74325,-2.7772472 -6.0375,-3.9847459 -6.76199,-3.5017465 -16.30123,-5.0714949 -23.78772,-5.0714949 -14.00699,0 -21.13123,5.1922447 -24.75373,10.2637396 -1.08675,1.5697484 -3.62249,5.6752443 -3.62249,11.1089883 0,2.656498 0.60375,5.071495 1.69049,7.486493 2.77725,5.916744 7.245,8.210992 13.04099,10.14299 4.95075,1.690498 10.86749,2.897997 12.31649,3.139496 4.70924,0.84525 7.48649,0.60375 9.05624,3.018747 0.12075,0.12075 0.483,0.7245 0.483,1.448999 0,0.845249 -0.60375,2.414998 -2.415,3.260247 -1.56975,0.724499 -3.50174,0.724499 -4.10549,0.724499 -7.60725,0 -13.76549,-3.863996 -15.81824,-5.312995 -1.2075,-0.965999 -2.29425,-1.931998 -3.50174,-3.018747 l -14.00699,12.678738 c 2.29425,1.690498 4.46775,3.501746 6.88274,4.950745 7.84874,4.950745 17.38799,7.607242 26.68573,7.607242 3.38099,0 20.04448,-0.2415 27.16872,-13.161737 1.81125,-3.260247 2.53575,-6.520493 2.53575,-10.14299 z"
         inkscape:connector-curvature="0" />
      <path
         id="path888"
         style="font-style:normal;font-variant:normal;font-weight:normal;font-stretch:normal;font-family:'Akzidenz-Grotesk BQ Super';-inkscape-font-specification:'Akzidenz-Grotesk BQ Super';text-align:end;text-anchor:end;stroke-width:3.01874661"
         d="m -197.97486,57.15015 v -85.249414 h -24.75373 v 27.0479731 c -1.69049,-1.5697484 -2.29424,-2.0527479 -3.38099,-2.7772472 -4.95075,-3.2602467 -10.50524,-3.3809965 -12.43724,-3.3809965 -16.66348,0 -23.30473,12.4372374 -25.23672,17.6294826 -2.1735,6.037493 -2.1735,11.833488 -2.1735,14.006985 -0.12075,3.622497 0.2415,22.580228 14.61073,30.791219 2.1735,1.328249 6.88275,3.501747 13.52399,3.501747 4.347,0 9.65999,-0.965999 13.16174,-3.501747 1.2075,-0.965999 2.29424,-2.294247 2.53574,-2.535747 l 0.12075,4.467745 z m -24.14998,-31.515718 c 0,4.588496 -0.36225,10.50524 -4.70924,13.523986 -0.60375,0.483 -2.415,1.569749 -4.83,1.569749 -2.29424,0 -4.82999,-1.086749 -6.27899,-2.656497 -2.898,-3.018747 -3.50175,-8.452492 -3.50175,-12.316488 0,-7.244993 1.56975,-11.229739 4.347,-13.403236 1.449,-1.086749 3.381,-1.811249 5.19224,-1.811249 1.6905,0 5.5545,0.7245 7.84875,4.829996 1.69049,3.139496 1.93199,6.761993 1.93199,10.263739 z"
         inkscape:connector-curvature="0" />
      <path
         id="path890"
         style="font-style:normal;font-variant:normal;font-weight:normal;font-stretch:normal;font-family:'Akzidenz-Grotesk BQ Super';-inkscape-font-specification:'Akzidenz-Grotesk BQ Super';text-align:end;text-anchor:end;stroke-width:3.01874661"
         d="m -129.63066,36.260421 c 0,-9.90149 -6.76199,-14.731485 -9.90149,-16.301233 -3.98474,-2.052748 -9.29774,-2.897997 -18.47473,-5.192245 -3.01875,-0.724499 -5.43374,-1.207499 -6.52049,-1.811248 -0.36225,-0.12075 -1.6905,-0.845249 -1.6905,-2.414998 0,-0.603749 0.36225,-1.9319976 1.81125,-2.6564969 1.32825,-0.6037494 3.01874,-0.6037494 3.50174,-0.6037494 7.60725,0 14.24849,4.8299953 16.05974,6.0374943 l 13.40323,-12.1957381 c -2.05274,-1.56974837 -3.74324,-2.7772472 -6.03749,-3.9847459 -6.76199,-3.5017465 -16.30123,-5.0714949 -23.78773,-5.0714949 -14.00698,0 -21.13122,5.1922447 -24.75372,10.2637396 -1.08675,1.5697484 -3.6225,5.6752443 -3.6225,11.1089883 0,2.656498 0.60375,5.071495 1.6905,7.486493 2.77725,5.916744 7.24499,8.210992 13.04099,10.14299 4.95074,1.690498 10.86749,2.897997 12.31649,3.139496 4.70924,0.84525 7.48649,0.60375 9.05624,3.018747 0.12075,0.12075 0.483,0.7245 0.483,1.448999 0,0.845249 -0.60375,2.414998 -2.415,3.260247 -1.56975,0.724499 -3.50175,0.724499 -4.1055,0.724499 -7.60724,0 -13.76548,-3.863996 -15.81823,-5.312995 -1.2075,-0.965999 -2.29425,-1.931998 -3.50175,-3.018747 l -14.00698,12.678738 c 2.29424,1.690498 4.46774,3.501746 6.88274,4.950745 7.84874,4.950745 17.38798,7.607242 26.68572,7.607242 3.381,0 20.04448,-0.2415 27.16872,-13.161737 1.81125,-3.260247 2.53575,-6.520493 2.53575,-10.14299 z"
         inkscape:connector-curvature="0" />
    </g>
    <g
       transform="matrix(0.88357939,0,0,0.88357939,30.308653,-0.99155889)"
       id="text832"
       style="font-style:normal;font-weight:normal;font-size:120.74987793px;line-height:0.89999998;font-family:sans-serif;letter-spacing:0px;word-spacing:0px;opacity:0.08800001;fill:#000000;fill-opacity:1;stroke:none;stroke-width:3.01874661"
       aria-label="sds">
      <path
         id="path893"
         style="font-style:normal;font-variant:normal;font-weight:normal;font-stretch:normal;font-family:'Akzidenz-Grotesk BQ Super';-inkscape-font-specification:'Akzidenz-Grotesk BQ Super';text-align:end;text-anchor:end;stroke-width:3.01874661"
         d="m 66.355342,110.39509 c 0,-9.90149 -6.761993,-14.731483 -9.90149,-16.301232 -3.984746,-2.052748 -9.297741,-2.897997 -18.474731,-5.192245 -3.018747,-0.724499 -5.433745,-1.207498 -6.520494,-1.811248 -0.362249,-0.12075 -1.690498,-0.845249 -1.690498,-2.414997 0,-0.60375 0.36225,-1.931998 1.811248,-2.656498 1.328249,-0.603749 3.018747,-0.603749 3.501747,-0.603749 7.607242,0 14.248485,4.829995 16.059733,6.037494 L 64.544094,75.256877 C 62.491346,73.687129 60.800848,72.47963 58.5066,71.272131 51.744607,67.770385 42.205366,66.200636 34.718874,66.200636 c -14.006986,0 -21.131229,5.192245 -24.7537251,10.26374 C 8.8784,78.034124 6.3426526,82.13962 6.3426526,87.573365 c 0,2.656497 0.6037494,5.071495 1.6904983,7.486492 2.7772471,5.916743 7.2449931,8.210993 13.0409871,10.142993 4.950745,1.6905 10.867489,2.89799 12.316487,3.13949 4.709245,0.84525 7.486493,0.60375 9.056241,3.01875 0.12075,0.12075 0.483,0.7245 0.483,1.449 0,0.84525 -0.60375,2.415 -2.414998,3.26025 -1.569748,0.7245 -3.501746,0.7245 -4.105496,0.7245 -7.607242,0 -13.765486,-3.864 -15.818234,-5.313 -1.207499,-0.966 -2.294248,-1.932 -3.501746,-3.01875 L 3.0824059,121.14183 c 2.2942477,1.6905 4.4677455,3.50175 6.882743,4.95075 7.8487421,4.95074 17.3879821,7.60724 26.6857231,7.60724 3.380997,0 20.04448,-0.2415 27.168722,-13.16174 1.811249,-3.26025 2.535748,-6.52049 2.535748,-10.14299 z"
         inkscape:connector-curvature="0" />
      <path
         id="path895"
         style="font-style:normal;font-variant:normal;font-weight:normal;font-stretch:normal;font-family:'Akzidenz-Grotesk BQ Super';-inkscape-font-specification:'Akzidenz-Grotesk BQ Super';text-align:end;text-anchor:end;stroke-width:3.01874661"
         d="M 138.926,131.28482 V 46.035407 h -24.75373 v 27.047972 c -1.6905,-1.569748 -2.29425,-2.052748 -3.381,-2.777247 -4.95074,-3.260247 -10.50524,-3.380996 -12.437233,-3.380996 -16.663483,0 -23.304727,12.437237 -25.236725,17.629482 -2.173497,6.037494 -2.173497,11.833488 -2.173497,14.006986 -0.12075,3.622496 0.241499,22.580226 14.610735,30.791216 2.173498,1.32825 6.882743,3.50175 13.523986,3.50175 4.346994,0 9.659994,-0.966 13.161734,-3.50175 1.2075,-0.966 2.29425,-2.29425 2.53575,-2.53574 l 0.12075,4.46774 z M 114.77602,99.769102 c 0,4.588498 -0.36225,10.505238 -4.70924,13.523988 -0.60375,0.483 -2.415,1.56975 -4.83,1.56975 -2.29425,0 -4.83,-1.08675 -6.278994,-2.6565 -2.897997,-3.01875 -3.501746,-8.45249 -3.501746,-12.316488 0,-7.244992 1.569748,-11.229738 4.346995,-13.403236 1.448995,-1.086749 3.380995,-1.811248 5.192245,-1.811248 1.6905,0 5.55449,0.724499 7.84874,4.829995 1.6905,3.139497 1.932,6.761993 1.932,10.263739 z"
         inkscape:connector-curvature="0" />
      <path
         id="path897"
         style="font-style:normal;font-variant:normal;font-weight:normal;font-stretch:normal;font-family:'Akzidenz-Grotesk BQ Super';-inkscape-font-specification:'Akzidenz-Grotesk BQ Super';text-align:end;text-anchor:end;stroke-width:3.01874661"
         d="m 207.2702,110.39509 c 0,-9.90149 -6.762,-14.731483 -9.90149,-16.301232 -3.98475,-2.052748 -9.29774,-2.897997 -18.47473,-5.192245 -3.01875,-0.724499 -5.43375,-1.207498 -6.5205,-1.811248 -0.36225,-0.12075 -1.6905,-0.845249 -1.6905,-2.414997 0,-0.60375 0.36225,-1.931998 1.81125,-2.656498 1.32825,-0.603749 3.01875,-0.603749 3.50175,-0.603749 7.60724,0 14.24849,4.829995 16.05973,6.037494 l 13.40324,-12.195738 c -2.05275,-1.569748 -3.74325,-2.777247 -6.03749,-3.984746 -6.762,-3.501746 -16.30124,-5.071495 -23.78773,-5.071495 -14.00699,0 -21.13123,5.192245 -24.75373,10.26374 -1.08674,1.569748 -3.62249,5.675244 -3.62249,11.108989 0,2.656497 0.60375,5.071495 1.6905,7.486492 2.77724,5.916743 7.24499,8.210993 13.04098,10.142993 4.95075,1.6905 10.86749,2.89799 12.31649,3.13949 4.70925,0.84525 7.48649,0.60375 9.05624,3.01875 0.12075,0.12075 0.483,0.7245 0.483,1.449 0,0.84525 -0.60375,2.415 -2.415,3.26025 -1.56974,0.7245 -3.50174,0.7245 -4.10549,0.7245 -7.60724,0 -13.76549,-3.864 -15.81824,-5.313 -1.20749,-0.966 -2.29424,-1.932 -3.50174,-3.01875 l -14.00699,12.67874 c 2.29425,1.6905 4.46775,3.50175 6.88274,4.95075 7.84875,4.95074 17.38799,7.60724 26.68573,7.60724 3.38099,0 20.04448,-0.2415 27.16872,-13.16174 1.81125,-3.26025 2.53575,-6.52049 2.53575,-10.14299 z"
         inkscape:connector-curvature="0" />
    </g>
    <g
       transform="matrix(0.88357939,0,0,0.88357939,30.308653,-0.99155889)"
       id="text836"
       style="font-style:normal;font-weight:normal;font-size:120.74987793px;line-height:0.89999998;font-family:sans-serif;letter-spacing:0px;word-spacing:0px;opacity:0.08800001;fill:#000000;fill-opacity:1;stroke:none;stroke-width:3.01874661"
       aria-label="sds">
      <path
         id="path900"
         style="font-style:normal;font-variant:normal;font-weight:normal;font-stretch:normal;font-family:'Akzidenz-Grotesk BQ Super';-inkscape-font-specification:'Akzidenz-Grotesk BQ Super';text-align:end;text-anchor:end;stroke-width:3.01874661"
         d="m -32.49088,36.260421 c 0,-9.90149 -6.761993,-14.731485 -9.90149,-16.301233 -3.984746,-2.052748 -9.297741,-2.897997 -18.474731,-5.192245 -3.018747,-0.724499 -5.433745,-1.207499 -6.520494,-1.811248 -0.362249,-0.12075 -1.690498,-0.845249 -1.690498,-2.414998 0,-0.603749 0.36225,-1.9319976 1.811248,-2.6564969 1.328249,-0.6037494 3.018747,-0.6037494 3.501747,-0.6037494 7.607242,0 14.248485,4.8299953 16.059733,6.0374943 L -34.302128,1.1222069 c -2.052748,-1.56974837 -3.743246,-2.7772472 -6.037494,-3.9847459 -6.761993,-3.5017465 -16.301234,-5.0714949 -23.787726,-5.0714949 -14.006986,0 -21.131229,5.1922447 -24.753725,10.2637396 -1.086749,1.5697484 -3.622496,5.6752443 -3.622496,11.1089883 0,2.656498 0.603749,5.071495 1.690498,7.486493 2.777247,5.916744 7.244993,8.210992 13.040987,10.14299 4.950745,1.690498 10.867489,2.897997 12.316487,3.139496 4.709246,0.84525 7.486493,0.60375 9.056241,3.018747 0.12075,0.12075 0.483,0.7245 0.483,1.448999 0,0.845249 -0.60375,2.414998 -2.414998,3.260247 -1.569748,0.724499 -3.501746,0.724499 -4.105496,0.724499 -7.607242,0 -13.765486,-3.863996 -15.818234,-5.312995 -1.207499,-0.965999 -2.294247,-1.931998 -3.501746,-3.018747 l -14.006986,12.678738 c 2.294248,1.690498 4.467745,3.501746 6.882743,4.950745 7.848742,4.950745 17.387982,7.607242 26.685723,7.607242 3.380997,0 20.04448,-0.2415 27.168723,-13.161737 1.811248,-3.260247 2.535747,-6.520493 2.535747,-10.14299 z"
         inkscape:connector-curvature="0" />
      <path
         id="path902"
         style="font-style:normal;font-variant:normal;font-weight:normal;font-stretch:normal;font-family:'Akzidenz-Grotesk BQ Super';-inkscape-font-specification:'Akzidenz-Grotesk BQ Super';text-align:end;text-anchor:end;stroke-width:3.01874661"
         d="M 40.079774,57.15015 V -28.099264 H 15.326049 V -1.0512909 C 13.635551,-2.6210393 13.031801,-3.1040388 11.945052,-3.8285381 6.9943074,-7.0887848 1.439813,-7.2095346 -0.49218506,-7.2095346 c -16.66348294,0 -23.30472694,12.4372374 -25.23672494,17.6294826 -2.173497,6.037493 -2.173497,11.833488 -2.173497,14.006985 -0.12075,3.622497 0.241499,22.580228 14.610735,30.791219 2.173498,1.328249 6.8827429,3.501747 13.5239862,3.501747 4.3469956,0 9.6599902,-0.965999 13.1617368,-3.501747 1.207499,-0.965999 2.294248,-2.294247 2.535747,-2.535747 l 0.12075,4.467745 z M 15.929798,25.634432 c 0,4.588496 -0.362249,10.50524 -4.709245,13.523986 -0.603749,0.483 -2.4149975,1.569749 -4.829995,1.569749 -2.2942477,0 -4.8299951,-1.086749 -6.27899367,-2.656497 -2.89799703,-3.018747 -3.50174643,-8.452492 -3.50174643,-12.316488 0,-7.244993 1.5697484,-11.229739 4.34699557,-13.403236 1.44899853,-1.086749 3.38099663,-1.811249 5.19224473,-1.811249 1.6904983,0 5.5544948,0.7245 7.8487418,4.829996 1.690499,3.139496 1.931998,6.761993 1.931998,10.263739 z"
         inkscape:connector-curvature="0" />
      <path
         id="path904"
         style="font-style:normal;font-variant:normal;font-weight:normal;font-stretch:normal;font-family:'Akzidenz-Grotesk BQ Super';-inkscape-font-specification:'Akzidenz-Grotesk BQ Super';text-align:end;text-anchor:end;stroke-width:3.01874661"
         d="m 108.42398,36.260421 c 0,-9.90149 -6.762,-14.731485 -9.901494,-16.301233 -3.984746,-2.052748 -9.297741,-2.897997 -18.474731,-5.192245 -3.018747,-0.724499 -5.433745,-1.207499 -6.520494,-1.811248 -0.362249,-0.12075 -1.690498,-0.845249 -1.690498,-2.414998 0,-0.603749 0.36225,-1.9319976 1.811248,-2.6564969 1.328249,-0.6037494 3.018747,-0.6037494 3.501747,-0.6037494 7.607242,0 14.248485,4.8299953 16.059733,6.0374943 L 106.61273,1.1222069 c -2.05275,-1.56974837 -3.74325,-2.7772472 -6.0375,-3.9847459 -6.761989,-3.5017465 -16.30123,-5.0714949 -23.787722,-5.0714949 -14.006986,0 -21.131229,5.1922447 -24.753725,10.2637396 -1.086749,1.5697484 -3.622496,5.6752443 -3.622496,11.1089883 0,2.656498 0.603749,5.071495 1.690498,7.486493 2.777247,5.916744 7.244993,8.210992 13.040987,10.14299 4.950745,1.690498 10.867489,2.897997 12.316487,3.139496 4.709246,0.84525 7.486493,0.60375 9.056241,3.018747 0.12075,0.12075 0.483,0.7245 0.483,1.448999 0,0.845249 -0.60375,2.414998 -2.414998,3.260247 -1.569748,0.724499 -3.501746,0.724499 -4.105496,0.724499 -7.607242,0 -13.765486,-3.863996 -15.818234,-5.312995 -1.207499,-0.965999 -2.294247,-1.931998 -3.501746,-3.018747 L 45.15104,47.007161 c 2.294248,1.690498 4.467745,3.501746 6.882743,4.950745 7.848742,4.950745 17.387982,7.607242 26.685723,7.607242 3.380997,0 20.04448,-0.2415 27.168724,-13.161737 1.81125,-3.260247 2.53575,-6.520493 2.53575,-10.14299 z"
         inkscape:connector-curvature="0" />
    </g>
    <g
       transform="matrix(0.88357939,0,0,0.88357939,30.308653,-0.99155889)"
       id="text840"
       style="font-style:normal;font-weight:normal;font-size:120.74987793px;line-height:0.89999998;font-family:sans-serif;letter-spacing:0px;word-spacing:0px;opacity:0.08800001;fill:#000000;fill-opacity:1;stroke:none;stroke-width:3.01874661"
       aria-label="sds">
      <path
         id="path907"
         style="font-style:normal;font-variant:normal;font-weight:normal;font-stretch:normal;font-family:'Akzidenz-Grotesk BQ Super';-inkscape-font-specification:'Akzidenz-Grotesk BQ Super';text-align:end;text-anchor:end;stroke-width:3.01874661"
         d="m 309.08642,110.39509 c 0,-9.90149 -6.76199,-14.731483 -9.90149,-16.301232 -3.98474,-2.052748 -9.29774,-2.897997 -18.47473,-5.192245 -3.01875,-0.724499 -5.43374,-1.207498 -6.52049,-1.811248 -0.36225,-0.12075 -1.6905,-0.845249 -1.6905,-2.414997 0,-0.60375 0.36225,-1.931998 1.81125,-2.656498 1.32824,-0.603749 3.01874,-0.603749 3.50174,-0.603749 7.60724,0 14.24849,4.829995 16.05974,6.037494 l 13.40323,-12.195738 c -2.05275,-1.569748 -3.74324,-2.777247 -6.03749,-3.984746 -6.76199,-3.501746 -16.30123,-5.071495 -23.78773,-5.071495 -14.00698,0 -21.13123,5.192245 -24.75372,10.26374 -1.08675,1.569748 -3.6225,5.675244 -3.6225,11.108989 0,2.656497 0.60375,5.071495 1.6905,7.486492 2.77725,5.916743 7.24499,8.210993 13.04099,10.142993 4.95074,1.6905 10.86749,2.89799 12.31648,3.13949 4.70925,0.84525 7.4865,0.60375 9.05625,3.01875 0.12075,0.12075 0.48299,0.7245 0.48299,1.449 0,0.84525 -0.60374,2.415 -2.41499,3.26025 -1.56975,0.7245 -3.50175,0.7245 -4.1055,0.7245 -7.60724,0 -13.76548,-3.864 -15.81823,-5.313 -1.2075,-0.966 -2.29425,-1.932 -3.50175,-3.01875 l -14.00699,12.67874 c 2.29425,1.6905 4.46775,3.50175 6.88275,4.95075 7.84874,4.95074 17.38798,7.60724 26.68572,7.60724 3.381,0 20.04448,-0.2415 27.16872,-13.16174 1.81125,-3.26025 2.53575,-6.52049 2.53575,-10.14299 z"
         inkscape:connector-curvature="0" />
      <path
         id="path909"
         style="font-style:normal;font-variant:normal;font-weight:normal;font-stretch:normal;font-family:'Akzidenz-Grotesk BQ Super';-inkscape-font-specification:'Akzidenz-Grotesk BQ Super';text-align:end;text-anchor:end;stroke-width:3.01874661"
         d="M 381.65707,131.28482 V 46.035407 h -24.75372 v 27.047972 c -1.6905,-1.569748 -2.29425,-2.052748 -3.381,-2.777247 -4.95074,-3.260247 -10.50524,-3.380996 -12.43723,-3.380996 -16.66349,0 -23.30473,12.437237 -25.23673,17.629482 -2.1735,6.037494 -2.1735,11.833488 -2.1735,14.006986 -0.12075,3.622496 0.2415,22.580226 14.61074,30.791216 2.1735,1.32825 6.88274,3.50175 13.52399,3.50175 4.34699,0 9.65999,-0.966 13.16173,-3.50175 1.2075,-0.966 2.29425,-2.29425 2.53575,-2.53574 l 0.12075,4.46774 z M 357.5071,99.769102 c 0,4.588498 -0.36225,10.505238 -4.70925,13.523988 -0.60375,0.483 -2.41499,1.56975 -4.82999,1.56975 -2.29425,0 -4.83,-1.08675 -6.27899,-2.6565 -2.898,-3.01875 -3.50175,-8.45249 -3.50175,-12.316488 0,-7.244992 1.56975,-11.229738 4.34699,-13.403236 1.449,-1.086749 3.381,-1.811248 5.19225,-1.811248 1.6905,0 5.55449,0.724499 7.84874,4.829995 1.6905,3.139497 1.932,6.761993 1.932,10.263739 z"
         inkscape:connector-curvature="0" />
      <path
         id="path911"
         style="font-style:normal;font-variant:normal;font-weight:normal;font-stretch:normal;font-family:'Akzidenz-Grotesk BQ Super';-inkscape-font-specification:'Akzidenz-Grotesk BQ Super';text-align:end;text-anchor:end;stroke-width:3.01874661"
         d="m 450.00128,110.39509 c 0,-9.90149 -6.762,-14.731483 -9.90149,-16.301232 -3.98475,-2.052748 -9.29774,-2.897997 -18.47473,-5.192245 -3.01875,-0.724499 -5.43375,-1.207498 -6.5205,-1.811248 -0.36225,-0.12075 -1.6905,-0.845249 -1.6905,-2.414997 0,-0.60375 0.36225,-1.931998 1.81125,-2.656498 1.32825,-0.603749 3.01875,-0.603749 3.50175,-0.603749 7.60724,0 14.24848,4.829995 16.05973,6.037494 l 13.40324,-12.195738 c -2.05275,-1.569748 -3.74325,-2.777247 -6.0375,-3.984746 -6.76199,-3.501746 -16.30123,-5.071495 -23.78772,-5.071495 -14.00699,0 -21.13123,5.192245 -24.75373,10.26374 -1.08674,1.569748 -3.62249,5.675244 -3.62249,11.108989 0,2.656497 0.60375,5.071495 1.6905,7.486492 2.77724,5.916743 7.24499,8.210993 13.04098,10.142993 4.95075,1.6905 10.86749,2.89799 12.31649,3.13949 4.70925,0.84525 7.48649,0.60375 9.05624,3.01875 0.12075,0.12075 0.483,0.7245 0.483,1.449 0,0.84525 -0.60375,2.415 -2.415,3.26025 -1.56975,0.7245 -3.50174,0.7245 -4.10549,0.7245 -7.60725,0 -13.76549,-3.864 -15.81824,-5.313 -1.2075,-0.966 -2.29424,-1.932 -3.50174,-3.01875 l -14.00699,12.67874 c 2.29425,1.6905 4.46775,3.50175 6.88274,4.95075 7.84875,4.95074 17.38799,7.60724 26.68573,7.60724 3.38099,0 20.04448,-0.2415 27.16872,-13.16174 1.81125,-3.26025 2.53575,-6.52049 2.53575,-10.14299 z"
         inkscape:connector-curvature="0" />
    </g>
    <g
       transform="matrix(0.88357939,0,0,0.88357939,30.308653,-0.99155889)"
       id="text844"
       style="font-style:normal;font-weight:normal;font-size:120.74987793px;line-height:0.89999998;font-family:sans-serif;letter-spacing:0px;word-spacing:0px;opacity:0.08800001;fill:#000000;fill-opacity:1;stroke:none;stroke-width:3.01874661"
       aria-label="sds">
      <path
         id="path914"
         style="font-style:normal;font-variant:normal;font-weight:normal;font-stretch:normal;font-family:'Akzidenz-Grotesk BQ Super';-inkscape-font-specification:'Akzidenz-Grotesk BQ Super';text-align:end;text-anchor:end;stroke-width:3.01874661"
         d="m 210.2402,36.260421 c 0,-9.90149 -6.76199,-14.731485 -9.90149,-16.301233 -3.98475,-2.052748 -9.29774,-2.897997 -18.47473,-5.192245 -3.01875,-0.724499 -5.43375,-1.207499 -6.5205,-1.811248 -0.36225,-0.12075 -1.69049,-0.845249 -1.69049,-2.414998 0,-0.603749 0.36225,-1.9319976 1.81124,-2.6564969 1.32825,-0.6037494 3.01875,-0.6037494 3.50175,-0.6037494 7.60724,0 14.24849,4.8299953 16.05973,6.0374943 L 208.42895,1.1222069 c -2.05275,-1.56974837 -3.74325,-2.7772472 -6.03749,-3.9847459 -6.762,-3.5017465 -16.30124,-5.0714949 -23.78773,-5.0714949 -14.00698,0 -21.13123,5.1922447 -24.75372,10.2637396 -1.08675,1.5697484 -3.6225,5.6752443 -3.6225,11.1089883 0,2.656498 0.60375,5.071495 1.6905,7.486493 2.77725,5.916744 7.24499,8.210992 13.04098,10.14299 4.95075,1.690498 10.86749,2.897997 12.31649,3.139496 4.70925,0.84525 7.48649,0.60375 9.05624,3.018747 0.12075,0.12075 0.483,0.7245 0.483,1.448999 0,0.845249 -0.60375,2.414998 -2.41499,3.260247 -1.56975,0.724499 -3.50175,0.724499 -4.1055,0.724499 -7.60724,0 -13.76549,-3.863996 -15.81823,-5.312995 -1.2075,-0.965999 -2.29425,-1.931998 -3.50175,-3.018747 l -14.00699,12.678738 c 2.29425,1.690498 4.46775,3.501746 6.88275,4.950745 7.84874,4.950745 17.38798,7.607242 26.68572,7.607242 3.381,0 20.04448,-0.2415 27.16872,-13.161737 1.81125,-3.260247 2.53575,-6.520493 2.53575,-10.14299 z"
         inkscape:connector-curvature="0" />
      <path
         id="path916"
         style="font-style:normal;font-variant:normal;font-weight:normal;font-stretch:normal;font-family:'Akzidenz-Grotesk BQ Super';-inkscape-font-specification:'Akzidenz-Grotesk BQ Super';text-align:end;text-anchor:end;stroke-width:3.01874661"
         d="m 282.81085,57.15015 v -85.249414 h -24.75372 v 27.0479731 c -1.6905,-1.5697484 -2.29425,-2.0527479 -3.381,-2.7772472 -4.95074,-3.2602467 -10.50524,-3.3809965 -12.43724,-3.3809965 -16.66348,0 -23.30472,12.4372374 -25.23672,17.6294826 -2.1735,6.037493 -2.1735,11.833488 -2.1735,14.006985 -0.12075,3.622497 0.2415,22.580228 14.61074,30.791219 2.17349,1.328249 6.88274,3.501747 13.52398,3.501747 4.347,0 9.65999,-0.965999 13.16174,-3.501747 1.2075,-0.965999 2.29425,-2.294247 2.53575,-2.535747 l 0.12075,4.467745 z M 258.66088,25.634432 c 0,4.588496 -0.36225,10.50524 -4.70925,13.523986 -0.60375,0.483 -2.415,1.569749 -4.82999,1.569749 -2.29425,0 -4.83,-1.086749 -6.279,-2.656497 -2.89799,-3.018747 -3.50174,-8.452492 -3.50174,-12.316488 0,-7.244993 1.56975,-11.229739 4.34699,-13.403236 1.449,-1.086749 3.381,-1.811249 5.19225,-1.811249 1.6905,0 5.55449,0.7245 7.84874,4.829996 1.6905,3.139496 1.932,6.761993 1.932,10.263739 z"
         inkscape:connector-curvature="0" />
      <path
         id="path918"
         style="font-style:normal;font-variant:normal;font-weight:normal;font-stretch:normal;font-family:'Akzidenz-Grotesk BQ Super';-inkscape-font-specification:'Akzidenz-Grotesk BQ Super';text-align:end;text-anchor:end;stroke-width:3.01874661"
         d="m 351.15506,36.260421 c 0,-9.90149 -6.762,-14.731485 -9.90149,-16.301233 -3.98475,-2.052748 -9.29775,-2.897997 -18.47474,-5.192245 -3.01874,-0.724499 -5.43374,-1.207499 -6.52049,-1.811248 -0.36225,-0.12075 -1.6905,-0.845249 -1.6905,-2.414998 0,-0.603749 0.36225,-1.9319976 1.81125,-2.6564969 1.32825,-0.6037494 3.01875,-0.6037494 3.50175,-0.6037494 7.60724,0 14.24848,4.8299953 16.05973,6.0374943 L 349.34381,1.1222069 c -2.05275,-1.56974837 -3.74325,-2.7772472 -6.0375,-3.9847459 -6.76199,-3.5017465 -16.30123,-5.0714949 -23.78772,-5.0714949 -14.00699,0 -21.13123,5.1922447 -24.75373,10.2637396 -1.08675,1.5697484 -3.62249,5.6752443 -3.62249,11.1089883 0,2.656498 0.60375,5.071495 1.69049,7.486493 2.77725,5.916744 7.245,8.210992 13.04099,10.14299 4.95075,1.690498 10.86749,2.897997 12.31649,3.139496 4.70924,0.84525 7.48649,0.60375 9.05624,3.018747 0.12075,0.12075 0.483,0.7245 0.483,1.448999 0,0.845249 -0.60375,2.414998 -2.415,3.260247 -1.56975,0.724499 -3.50175,0.724499 -4.10549,0.724499 -7.60725,0 -13.76549,-3.863996 -15.81824,-5.312995 -1.2075,-0.965999 -2.29425,-1.931998 -3.50175,-3.018747 l -14.00698,12.678738 c 2.29425,1.690498 4.46774,3.501746 6.88274,4.950745 7.84874,4.950745 17.38798,7.607242 26.68573,7.607242 3.38099,0 20.04447,-0.2415 27.16872,-13.161737 1.81125,-3.260247 2.53575,-6.520493 2.53575,-10.14299 z"
         inkscape:connector-curvature="0" />
    </g>
    <g
       transform="matrix(0.88357939,0,0,0.88357939,30.308653,-0.99155889)"
       id="text848"
       style="font-style:normal;font-weight:normal;font-size:120.74987793px;line-height:0.89999998;font-family:sans-serif;letter-spacing:0px;word-spacing:0px;opacity:0.08800001;fill:#000000;fill-opacity:1;stroke:none;stroke-width:3.01874661"
       aria-label="sds">
      <path
         id="path921"
         style="font-style:normal;font-variant:normal;font-weight:normal;font-stretch:normal;font-family:'Akzidenz-Grotesk BQ Super';-inkscape-font-specification:'Akzidenz-Grotesk BQ Super';text-align:end;text-anchor:end;stroke-width:3.01874661"
         d="m 547.14108,110.39509 c 0,-9.90149 -6.762,-14.731483 -9.90149,-16.301232 -3.98475,-2.052748 -9.29774,-2.897997 -18.47473,-5.192245 -3.01875,-0.724499 -5.43375,-1.207498 -6.5205,-1.811248 -0.36225,-0.12075 -1.6905,-0.845249 -1.6905,-2.414997 0,-0.60375 0.36225,-1.931998 1.81125,-2.656498 1.32825,-0.603749 3.01875,-0.603749 3.50175,-0.603749 7.60724,0 14.24849,4.829995 16.05973,6.037494 l 13.40324,-12.195738 c -2.05275,-1.569748 -3.74325,-2.777247 -6.03749,-3.984746 -6.762,-3.501746 -16.30124,-5.071495 -23.78773,-5.071495 -14.00699,0 -21.13123,5.192245 -24.75372,10.26374 -1.08675,1.569748 -3.6225,5.675244 -3.6225,11.108989 0,2.656497 0.60375,5.071495 1.6905,7.486492 2.77724,5.916743 7.24499,8.210993 13.04098,10.142993 4.95075,1.6905 10.86749,2.89799 12.31649,3.13949 4.70925,0.84525 7.48649,0.60375 9.05624,3.01875 0.12075,0.12075 0.483,0.7245 0.483,1.449 0,0.84525 -0.60375,2.415 -2.415,3.26025 -1.56974,0.7245 -3.50174,0.7245 -4.10549,0.7245 -7.60724,0 -13.76549,-3.864 -15.81824,-5.313 -1.20749,-0.966 -2.29424,-1.932 -3.50174,-3.01875 l -14.00699,12.67874 c 2.29425,1.6905 4.46775,3.50175 6.88275,4.95075 7.84874,4.95074 17.38798,7.60724 26.68572,7.60724 3.38099,0 20.04448,-0.2415 27.16872,-13.16174 1.81125,-3.26025 2.53575,-6.52049 2.53575,-10.14299 z"
         inkscape:connector-curvature="0" />
      <path
         id="path923"
         style="font-style:normal;font-variant:normal;font-weight:normal;font-stretch:normal;font-family:'Akzidenz-Grotesk BQ Super';-inkscape-font-specification:'Akzidenz-Grotesk BQ Super';text-align:end;text-anchor:end;stroke-width:3.01874661"
         d="M 619.71173,131.28482 V 46.035407 h -24.75372 v 27.047972 c -1.6905,-1.569748 -2.29425,-2.052748 -3.381,-2.777247 -4.95074,-3.260247 -10.50524,-3.380996 -12.43724,-3.380996 -16.66348,0 -23.30472,12.437237 -25.23672,17.629482 -2.1735,6.037494 -2.1735,11.833488 -2.1735,14.006986 -0.12075,3.622496 0.2415,22.580226 14.61074,30.791216 2.17349,1.32825 6.88274,3.50175 13.52398,3.50175 4.347,0 9.65999,-0.966 13.16174,-3.50175 1.2075,-0.966 2.29425,-2.29425 2.53575,-2.53574 l 0.12075,4.46774 z M 595.56176,99.769102 c 0,4.588498 -0.36225,10.505238 -4.70925,13.523988 -0.60375,0.483 -2.415,1.56975 -4.82999,1.56975 -2.29425,0 -4.83,-1.08675 -6.279,-2.6565 -2.89799,-3.01875 -3.50174,-8.45249 -3.50174,-12.316488 0,-7.244992 1.56974,-11.229738 4.34699,-13.403236 1.449,-1.086749 3.381,-1.811248 5.19225,-1.811248 1.69049,0 5.55449,0.724499 7.84874,4.829995 1.6905,3.139497 1.932,6.761993 1.932,10.263739 z"
         inkscape:connector-curvature="0" />
      <path
         id="path925"
         style="font-style:normal;font-variant:normal;font-weight:normal;font-stretch:normal;font-family:'Akzidenz-Grotesk BQ Super';-inkscape-font-specification:'Akzidenz-Grotesk BQ Super';text-align:end;text-anchor:end;stroke-width:3.01874661"
         d="m 688.05593,110.39509 c 0,-9.90149 -6.76199,-14.731483 -9.90149,-16.301232 -3.98474,-2.052748 -9.29774,-2.897997 -18.47473,-5.192245 -3.01874,-0.724499 -5.43374,-1.207498 -6.52049,-1.811248 -0.36225,-0.12075 -1.6905,-0.845249 -1.6905,-2.414997 0,-0.60375 0.36225,-1.931998 1.81125,-2.656498 1.32825,-0.603749 3.01875,-0.603749 3.50175,-0.603749 7.60724,0 14.24848,4.829995 16.05973,6.037494 l 13.40324,-12.195738 c -2.05275,-1.569748 -3.74325,-2.777247 -6.0375,-3.984746 -6.76199,-3.501746 -16.30123,-5.071495 -23.78772,-5.071495 -14.00699,0 -21.13123,5.192245 -24.75373,10.26374 -1.08675,1.569748 -3.6225,5.675244 -3.6225,11.108989 0,2.656497 0.60375,5.071495 1.6905,7.486492 2.77725,5.916743 7.245,8.210993 13.04099,10.142993 4.95074,1.6905 10.86749,2.89799 12.31649,3.13949 4.70924,0.84525 7.48649,0.60375 9.05624,3.01875 0.12075,0.12075 0.483,0.7245 0.483,1.449 0,0.84525 -0.60375,2.415 -2.415,3.26025 -1.56975,0.7245 -3.50175,0.7245 -4.1055,0.7245 -7.60724,0 -13.76548,-3.864 -15.81823,-5.313 -1.2075,-0.966 -2.29425,-1.932 -3.50175,-3.01875 L 624.783,121.14183 c 2.29425,1.6905 4.46774,3.50175 6.88274,4.95075 7.84874,4.95074 17.38798,7.60724 26.68572,7.60724 3.381,0 20.04448,-0.2415 27.16873,-13.16174 1.81124,-3.26025 2.53574,-6.52049 2.53574,-10.14299 z"
         inkscape:connector-curvature="0" />
    </g>
    <g
       transform="matrix(0.88357939,0,0,0.88357939,30.308653,-0.99155889)"
       id="text852"
       style="font-style:normal;font-weight:normal;font-size:120.74987793px;line-height:0.89999998;font-family:sans-serif;letter-spacing:0px;word-spacing:0px;opacity:0.08800001;fill:#000000;fill-opacity:1;stroke:none;stroke-width:3.01874661"
       aria-label="sds">
      <path
         id="path928"
         style="font-style:normal;font-variant:normal;font-weight:normal;font-stretch:normal;font-family:'Akzidenz-Grotesk BQ Super';-inkscape-font-specification:'Akzidenz-Grotesk BQ Super';text-align:end;text-anchor:end;stroke-width:3.01874661"
         d="m 448.29483,36.260421 c 0,-9.90149 -6.762,-14.731485 -9.90149,-16.301233 -3.98475,-2.052748 -9.29775,-2.897997 -18.47474,-5.192245 -3.01874,-0.724499 -5.43374,-1.207499 -6.52049,-1.811248 -0.36225,-0.12075 -1.6905,-0.845249 -1.6905,-2.414998 0,-0.603749 0.36225,-1.9319976 1.81125,-2.6564969 1.32825,-0.6037494 3.01875,-0.6037494 3.50175,-0.6037494 7.60724,0 14.24848,4.8299953 16.05973,6.0374943 L 446.48358,1.1222069 c -2.05275,-1.56974837 -3.74325,-2.7772472 -6.0375,-3.9847459 -6.76199,-3.5017465 -16.30123,-5.0714949 -23.78772,-5.0714949 -14.00699,0 -21.13123,5.1922447 -24.75373,10.2637396 -1.08675,1.5697484 -3.62249,5.6752443 -3.62249,11.1089883 0,2.656498 0.60375,5.071495 1.69049,7.486493 2.77725,5.916744 7.245,8.210992 13.04099,10.14299 4.95075,1.690498 10.86749,2.897997 12.31649,3.139496 4.70924,0.84525 7.48649,0.60375 9.05624,3.018747 0.12075,0.12075 0.483,0.7245 0.483,1.448999 0,0.845249 -0.60375,2.414998 -2.415,3.260247 -1.56975,0.724499 -3.50174,0.724499 -4.10549,0.724499 -7.60725,0 -13.76549,-3.863996 -15.81824,-5.312995 -1.2075,-0.965999 -2.29425,-1.931998 -3.50174,-3.018747 l -14.00699,12.678738 c 2.29425,1.690498 4.46775,3.501746 6.88274,4.950745 7.84874,4.950745 17.38798,7.607242 26.68573,7.607242 3.38099,0 20.04448,-0.2415 27.16872,-13.161737 1.81125,-3.260247 2.53575,-6.520493 2.53575,-10.14299 z"
         inkscape:connector-curvature="0" />
      <path
         id="path930"
         style="font-style:normal;font-variant:normal;font-weight:normal;font-stretch:normal;font-family:'Akzidenz-Grotesk BQ Super';-inkscape-font-specification:'Akzidenz-Grotesk BQ Super';text-align:end;text-anchor:end;stroke-width:3.01874661"
         d="m 520.86548,57.15015 v -85.249414 h -24.75373 v 27.0479731 c -1.69049,-1.5697484 -2.29424,-2.0527479 -3.38099,-2.7772472 -4.95075,-3.2602467 -10.50524,-3.3809965 -12.43724,-3.3809965 -16.66348,0 -23.30473,12.4372374 -25.23672,17.6294826 -2.1735,6.037493 -2.1735,11.833488 -2.1735,14.006985 -0.12075,3.622497 0.2415,22.580228 14.61073,30.791219 2.1735,1.328249 6.88275,3.501747 13.52399,3.501747 4.347,0 9.65999,-0.965999 13.16174,-3.501747 1.2075,-0.965999 2.29424,-2.294247 2.53574,-2.535747 l 0.12075,4.467745 z M 496.7155,25.634432 c 0,4.588496 -0.36225,10.50524 -4.70924,13.523986 -0.60375,0.483 -2.415,1.569749 -4.83,1.569749 -2.29424,0 -4.82999,-1.086749 -6.27899,-2.656497 -2.898,-3.018747 -3.50175,-8.452492 -3.50175,-12.316488 0,-7.244993 1.56975,-11.229739 4.347,-13.403236 1.449,-1.086749 3.381,-1.811249 5.19224,-1.811249 1.6905,0 5.5545,0.7245 7.84875,4.829996 1.69049,3.139496 1.93199,6.761993 1.93199,10.263739 z"
         inkscape:connector-curvature="0" />
      <path
         id="path932"
         style="font-style:normal;font-variant:normal;font-weight:normal;font-stretch:normal;font-family:'Akzidenz-Grotesk BQ Super';-inkscape-font-specification:'Akzidenz-Grotesk BQ Super';text-align:end;text-anchor:end;stroke-width:3.01874661"
         d="m 589.20968,36.260421 c 0,-9.90149 -6.76199,-14.731485 -9.90149,-16.301233 -3.98474,-2.052748 -9.29774,-2.897997 -18.47473,-5.192245 -3.01875,-0.724499 -5.43374,-1.207499 -6.52049,-1.811248 -0.36225,-0.12075 -1.6905,-0.845249 -1.6905,-2.414998 0,-0.603749 0.36225,-1.9319976 1.81125,-2.6564969 1.32825,-0.6037494 3.01874,-0.6037494 3.50174,-0.6037494 7.60725,0 14.24849,4.8299953 16.05974,6.0374943 L 587.39843,1.1222069 c -2.05274,-1.56974837 -3.74324,-2.7772472 -6.03749,-3.9847459 -6.76199,-3.5017465 -16.30123,-5.0714949 -23.78773,-5.0714949 -14.00698,0 -21.13123,5.1922447 -24.75372,10.2637396 -1.08675,1.5697484 -3.6225,5.6752443 -3.6225,11.1089883 0,2.656498 0.60375,5.071495 1.6905,7.486493 2.77725,5.916744 7.24499,8.210992 13.04099,10.14299 4.95074,1.690498 10.86749,2.897997 12.31648,3.139496 4.70925,0.84525 7.4865,0.60375 9.05625,3.018747 0.12075,0.12075 0.483,0.7245 0.483,1.448999 0,0.845249 -0.60375,2.414998 -2.415,3.260247 -1.56975,0.724499 -3.50175,0.724499 -4.1055,0.724499 -7.60724,0 -13.76548,-3.863996 -15.81823,-5.312995 -1.2075,-0.965999 -2.29425,-1.931998 -3.50175,-3.018747 l -14.00698,12.678738 c 2.29424,1.690498 4.46774,3.501746 6.88274,4.950745 7.84874,4.950745 17.38798,7.607242 26.68572,7.607242 3.381,0 20.04448,-0.2415 27.16872,-13.161737 1.81125,-3.260247 2.53575,-6.520493 2.53575,-10.14299 z"
         inkscape:connector-curvature="0" />
    </g>
    <g
       transform="matrix(0.88357939,0,0,0.88357939,30.308653,-0.99155889)"
       id="text856"
       style="font-style:normal;font-weight:normal;font-size:120.74987793px;line-height:0.89999998;font-family:sans-serif;letter-spacing:0px;word-spacing:0px;opacity:0.08800001;fill:#000000;fill-opacity:1;stroke:none;stroke-width:3.01874661"
       aria-label="sds">
      <path
         id="path935"
         style="font-style:normal;font-variant:normal;font-weight:normal;font-stretch:normal;font-family:'Akzidenz-Grotesk BQ Super';-inkscape-font-specification:'Akzidenz-Grotesk BQ Super';text-align:end;text-anchor:end;stroke-width:3.01874661"
         d="m 29.384028,258.56178 c 0,-9.90149 -6.761993,-14.73149 -9.90149,-16.30123 -3.984746,-2.05275 -9.29774,-2.898 -18.4747309,-5.19225 -3.0187469,-0.7245 -5.4337445,-1.2075 -6.5204934,-1.81125 -0.3622496,-0.12075 -1.6904983,-0.84525 -1.6904983,-2.415 0,-0.60374 0.3622497,-1.93199 1.8112482,-2.65649 1.3282487,-0.60375 3.0187469,-0.60375 3.5017465,-0.60375 7.6072423,0 14.2484859,4.82999 16.0597339,6.03749 L 27.57278,223.42356 c -2.052748,-1.56974 -3.743246,-2.77724 -6.037494,-3.98474 -6.761993,-3.50175 -16.3012331,-5.0715 -23.7877256,-5.0715 -14.0069854,0 -21.1312284,5.19225 -24.7537254,10.26374 -1.086748,1.56975 -3.622496,5.67525 -3.622496,11.10899 0,2.6565 0.603749,5.0715 1.690498,7.48649 2.777248,5.91675 7.244993,8.211 13.040987,10.14299 4.950745,1.6905 10.8674892,2.898 12.3164878,3.1395 4.7092452,0.84525 7.4864924,0.60375 9.0562408,3.01875 0.1207499,0.12075 0.4829995,0.7245 0.4829995,1.449 0,0.84525 -0.6037494,2.41499 -2.4149975,3.26024 -1.5697485,0.7245 -3.5017465,0.7245 -4.10549589,0.7245 -7.60724231,0 -13.76548571,-3.86399 -15.81823371,-5.31299 -1.207499,-0.966 -2.294248,-1.932 -3.501747,-3.01875 l -14.006986,12.67874 c 2.294248,1.6905 4.467746,3.50174 6.882743,4.95074 7.848743,4.95075 17.3879829,7.60725 26.68572347,7.60725 3.38099653,0 20.04447953,-0.2415 27.16872253,-13.16174 1.811248,-3.26025 2.535747,-6.52049 2.535747,-10.14299 z"
         inkscape:connector-curvature="0" />
      <path
         id="path937"
         style="font-style:normal;font-variant:normal;font-weight:normal;font-stretch:normal;font-family:'Akzidenz-Grotesk BQ Super';-inkscape-font-specification:'Akzidenz-Grotesk BQ Super';text-align:end;text-anchor:end;stroke-width:3.01874661"
         d="M 101.95468,279.45151 V 194.20209 H 77.200957 v 27.04798 c -1.690498,-1.56975 -2.294247,-2.05275 -3.380996,-2.77725 -4.950745,-3.26025 -10.50524,-3.381 -12.437238,-3.381 -16.663483,0 -23.304726,12.43724 -25.236724,17.62948 -2.173498,6.0375 -2.173498,11.83349 -2.173498,14.00699 -0.12075,3.6225 0.2415,22.58023 14.610735,30.79122 2.173498,1.32825 6.882743,3.50175 13.523987,3.50175 4.346995,0 9.65999,-0.966 13.161736,-3.50175 1.207499,-0.966 2.294248,-2.29425 2.535748,-2.53575 l 0.12075,4.46775 z M 77.804707,247.93579 c 0,4.58849 -0.36225,10.50524 -4.709245,13.52399 -0.60375,0.483 -2.414998,1.56974 -4.829996,1.56974 -2.294247,0 -4.829995,-1.08674 -6.278993,-2.65649 -2.897997,-3.01875 -3.501747,-8.45249 -3.501747,-12.31649 0,-7.24499 1.569749,-11.22974 4.346996,-13.40324 1.448998,-1.08675 3.380997,-1.81125 5.192245,-1.81125 1.690498,0 5.554494,0.7245 7.848742,4.83 1.690498,3.1395 1.931998,6.76199 1.931998,10.26374 z"
         inkscape:connector-curvature="0" />
      <path
         id="path939"
         style="font-style:normal;font-variant:normal;font-weight:normal;font-stretch:normal;font-family:'Akzidenz-Grotesk BQ Super';-inkscape-font-specification:'Akzidenz-Grotesk BQ Super';text-align:end;text-anchor:end;stroke-width:3.01874661"
         d="m 170.29888,258.56178 c 0,-9.90149 -6.76199,-14.73149 -9.90149,-16.30123 -3.98474,-2.05275 -9.29774,-2.898 -18.47473,-5.19225 -3.01874,-0.7245 -5.43374,-1.2075 -6.52049,-1.81125 -0.36225,-0.12075 -1.6905,-0.84525 -1.6905,-2.415 0,-0.60374 0.36225,-1.93199 1.81125,-2.65649 1.32825,-0.60375 3.01875,-0.60375 3.50175,-0.60375 7.60724,0 14.24848,4.82999 16.05973,6.03749 l 13.40324,-12.19574 c -2.05275,-1.56974 -3.74325,-2.77724 -6.0375,-3.98474 -6.76199,-3.50175 -16.30123,-5.0715 -23.78772,-5.0715 -14.00699,0 -21.13123,5.19225 -24.75373,10.26374 -1.08675,1.56975 -3.62249,5.67525 -3.62249,11.10899 0,2.6565 0.60374,5.0715 1.69049,7.48649 2.77725,5.91675 7.245,8.211 13.04099,10.14299 4.95075,1.6905 10.86749,2.898 12.31649,3.1395 4.70924,0.84525 7.48649,0.60375 9.05624,3.01875 0.12075,0.12075 0.483,0.7245 0.483,1.449 0,0.84525 -0.60375,2.41499 -2.415,3.26024 -1.56975,0.7245 -3.50175,0.7245 -4.1055,0.7245 -7.60724,0 -13.76548,-3.86399 -15.81823,-5.31299 -1.2075,-0.966 -2.29425,-1.932 -3.50175,-3.01875 l -14.00698,12.67874 c 2.29425,1.6905 4.46774,3.50174 6.88274,4.95074 7.84874,4.95075 17.38798,7.60725 26.68572,7.60725 3.381,0 20.04448,-0.2415 27.16873,-13.16174 1.81125,-3.26025 2.53574,-6.52049 2.53574,-10.14299 z"
         inkscape:connector-curvature="0" />
    </g>
    <g
       transform="matrix(0.88357939,0,0,0.88357939,30.308653,-0.99155889)"
       id="text860"
       style="font-style:normal;font-weight:normal;font-size:120.74987793px;line-height:0.89999998;font-family:sans-serif;letter-spacing:0px;word-spacing:0px;opacity:0.08800001;fill:#000000;fill-opacity:1;stroke:none;stroke-width:3.01874661"
       aria-label="sds">
      <path
         id="path942"
         style="font-style:normal;font-variant:normal;font-weight:normal;font-stretch:normal;font-family:'Akzidenz-Grotesk BQ Super';-inkscape-font-specification:'Akzidenz-Grotesk BQ Super';text-align:end;text-anchor:end;stroke-width:3.01874661"
         d="m -69.462193,184.42707 c 0,-9.90149 -6.761994,-14.73148 -9.90149,-16.30123 -3.984746,-2.05275 -9.297741,-2.898 -18.474732,-5.19224 -3.018745,-0.7245 -5.433745,-1.2075 -6.520495,-1.81125 -0.36225,-0.12075 -1.6905,-0.84525 -1.6905,-2.415 0,-0.60375 0.36225,-1.932 1.81125,-2.6565 1.32825,-0.60375 3.01875,-0.60375 3.50175,-0.60375 7.60724,0 14.248484,4.83 16.059732,6.0375 l 13.403236,-12.19574 c -2.052748,-1.56975 -3.743246,-2.77725 -6.037494,-3.98475 -6.761993,-3.50174 -16.301233,-5.07149 -23.787724,-5.07149 -14.00699,0 -21.13123,5.19224 -24.75373,10.26374 -1.08675,1.56975 -3.62249,5.67524 -3.62249,11.10899 0,2.65649 0.60375,5.07149 1.6905,7.48649 2.77724,5.91674 7.24499,8.21099 13.04098,10.14299 4.95075,1.6905 10.86749,2.898 12.31649,3.1395 4.709245,0.84525 7.486492,0.60375 9.056241,3.01874 0.12075,0.12075 0.482999,0.7245 0.482999,1.449 0,0.84525 -0.603749,2.415 -2.414997,3.26025 -1.569749,0.7245 -3.501747,0.7245 -4.105496,0.7245 -7.607247,0 -13.765487,-3.864 -15.818237,-5.313 -1.2075,-0.966 -2.29424,-1.932 -3.50174,-3.01874 l -14.00699,12.67873 c 2.29425,1.6905 4.46775,3.50175 6.88274,4.95075 7.84875,4.95074 17.38799,7.60724 26.685727,7.60724 3.380996,0 20.044479,-0.2415 27.168722,-13.16174 1.811248,-3.26024 2.535748,-6.52049 2.535748,-10.14299 z"
         inkscape:connector-curvature="0" />
      <path
         id="path944"
         style="font-style:normal;font-variant:normal;font-weight:normal;font-stretch:normal;font-family:'Akzidenz-Grotesk BQ Super';-inkscape-font-specification:'Akzidenz-Grotesk BQ Super';text-align:end;text-anchor:end;stroke-width:3.01874661"
         d="M 3.1084604,205.3168 V 120.06739 H -21.645265 v 27.04797 c -1.690498,-1.56975 -2.294247,-2.05275 -3.380996,-2.77725 -4.950745,-3.26024 -10.505239,-3.38099 -12.437238,-3.38099 -16.663483,0 -23.304726,12.43724 -25.236724,17.62948 -2.173498,6.03749 -2.173498,11.83349 -2.173498,14.00699 -0.12075,3.62249 0.2415,22.58022 14.610735,30.79121 2.173498,1.32825 6.882743,3.50175 13.523987,3.50175 4.346995,0 9.65999,-0.966 13.161736,-3.50175 1.207499,-0.96599 2.294248,-2.29424 2.535748,-2.53574 l 0.12075,4.46774 z M -21.041515,173.80108 c 0,4.5885 -0.36225,10.50524 -4.709245,13.52399 -0.60375,0.483 -2.414998,1.56975 -4.829995,1.56975 -2.294248,0 -4.829996,-1.08675 -6.278994,-2.6565 -2.897997,-3.01874 -3.501747,-8.45249 -3.501747,-12.31649 0,-7.24499 1.569749,-11.22973 4.346996,-13.40323 1.448999,-1.08675 3.380997,-1.81125 5.192245,-1.81125 1.690498,0 5.554494,0.7245 7.848742,4.83 1.690498,3.13949 1.931998,6.76199 1.931998,10.26373 z"
         inkscape:connector-curvature="0" />
      <path
         id="path946"
         style="font-style:normal;font-variant:normal;font-weight:normal;font-stretch:normal;font-family:'Akzidenz-Grotesk BQ Super';-inkscape-font-specification:'Akzidenz-Grotesk BQ Super';text-align:end;text-anchor:end;stroke-width:3.01874661"
         d="m 71.452662,184.42707 c 0,-9.90149 -6.761993,-14.73148 -9.90149,-16.30123 -3.984745,-2.05275 -9.29774,-2.898 -18.474731,-5.19224 -3.018747,-0.7245 -5.433744,-1.2075 -6.520493,-1.81125 -0.36225,-0.12075 -1.690499,-0.84525 -1.690499,-2.415 0,-0.60375 0.36225,-1.932 1.811249,-2.6565 1.328248,-0.60375 3.018747,-0.60375 3.501746,-0.60375 7.607242,0 14.248486,4.83 16.059734,6.0375 l 13.403236,-12.19574 c -2.052748,-1.56975 -3.743246,-2.77725 -6.037494,-3.98475 -6.761993,-3.50174 -16.301233,-5.07149 -23.787726,-5.07149 -14.006985,0 -21.131228,5.19224 -24.753725,10.26374 -1.086748,1.56975 -3.622496,5.67524 -3.622496,11.10899 0,2.65649 0.60375,5.07149 1.690498,7.48649 2.777248,5.91674 7.244993,8.21099 13.040987,10.14299 4.950745,1.6905 10.867489,2.898 12.316488,3.1395 4.709245,0.84525 7.486492,0.60375 9.056241,3.01874 0.12075,0.12075 0.482999,0.7245 0.482999,1.449 0,0.84525 -0.603749,2.415 -2.414997,3.26025 -1.569749,0.7245 -3.501747,0.7245 -4.105496,0.7245 -7.607243,0 -13.765486,-3.864 -15.818234,-5.313 -1.207499,-0.966 -2.294248,-1.932 -3.501747,-3.01874 L 8.1797264,195.17381 c 2.2942476,1.6905 4.4677456,3.50175 6.8827426,4.95075 7.848743,4.95074 17.387983,7.60724 26.685724,7.60724 3.380996,0 20.044479,-0.2415 27.168722,-13.16174 1.811248,-3.26024 2.535747,-6.52049 2.535747,-10.14299 z"
         inkscape:connector-curvature="0" />
    </g>
    <g
       transform="matrix(0.88357939,0,0,0.88357939,30.308653,-0.99155889)"
       id="text864"
       style="font-style:normal;font-weight:normal;font-size:120.74987793px;line-height:0.89999998;font-family:sans-serif;letter-spacing:0px;word-spacing:0px;opacity:0.08800001;fill:#000000;fill-opacity:1;stroke:none;stroke-width:3.01874661"
       aria-label="sds">
      <path
         id="path949"
         style="font-style:normal;font-variant:normal;font-weight:normal;font-stretch:normal;font-family:'Akzidenz-Grotesk BQ Super';-inkscape-font-specification:'Akzidenz-Grotesk BQ Super';text-align:end;text-anchor:end;stroke-width:3.01874661"
         d="m 267.43869,258.56178 c 0,-9.90149 -6.762,-14.73149 -9.90149,-16.30123 -3.98475,-2.05275 -9.29775,-2.898 -18.47474,-5.19225 -3.01874,-0.7245 -5.43374,-1.2075 -6.52049,-1.81125 -0.36225,-0.12075 -1.6905,-0.84525 -1.6905,-2.415 0,-0.60374 0.36225,-1.93199 1.81125,-2.65649 1.32825,-0.60375 3.01875,-0.60375 3.50175,-0.60375 7.60724,0 14.24848,4.82999 16.05973,6.03749 l 13.40324,-12.19574 c -2.05275,-1.56974 -3.74325,-2.77724 -6.0375,-3.98474 -6.76199,-3.50175 -16.30123,-5.0715 -23.78772,-5.0715 -14.00699,0 -21.13123,5.19225 -24.75373,10.26374 -1.08675,1.56975 -3.62249,5.67525 -3.62249,11.10899 0,2.6565 0.60375,5.0715 1.69049,7.48649 2.77725,5.91675 7.245,8.211 13.04099,10.14299 4.95075,1.6905 10.86749,2.898 12.31649,3.1395 4.70924,0.84525 7.48649,0.60375 9.05624,3.01875 0.12075,0.12075 0.483,0.7245 0.483,1.449 0,0.84525 -0.60375,2.41499 -2.415,3.26024 -1.56975,0.7245 -3.50174,0.7245 -4.10549,0.7245 -7.60725,0 -13.76549,-3.86399 -15.81824,-5.31299 -1.2075,-0.966 -2.29425,-1.932 -3.50174,-3.01875 l -14.00699,12.67874 c 2.29425,1.6905 4.46774,3.50174 6.88274,4.95074 7.84874,4.95075 17.38798,7.60725 26.68573,7.60725 3.38099,0 20.04448,-0.2415 27.16872,-13.16174 1.81125,-3.26025 2.53575,-6.52049 2.53575,-10.14299 z"
         inkscape:connector-curvature="0" />
      <path
         id="path951"
         style="font-style:normal;font-variant:normal;font-weight:normal;font-stretch:normal;font-family:'Akzidenz-Grotesk BQ Super';-inkscape-font-specification:'Akzidenz-Grotesk BQ Super';text-align:end;text-anchor:end;stroke-width:3.01874661"
         d="m 340.00934,279.45151 v -85.24942 h -24.75373 v 27.04798 c -1.69049,-1.56975 -2.29424,-2.05275 -3.38099,-2.77725 -4.95075,-3.26025 -10.50524,-3.381 -12.43724,-3.381 -16.66348,0 -23.30473,12.43724 -25.23672,17.62948 -2.1735,6.0375 -2.1735,11.83349 -2.1735,14.00699 -0.12075,3.6225 0.2415,22.58023 14.61073,30.79122 2.1735,1.32825 6.88275,3.50175 13.52399,3.50175 4.347,0 9.65999,-0.966 13.16174,-3.50175 1.2075,-0.966 2.29424,-2.29425 2.53574,-2.53575 l 0.12075,4.46775 z m -24.14998,-31.51572 c 0,4.58849 -0.36225,10.50524 -4.70924,13.52399 -0.60375,0.483 -2.415,1.56974 -4.83,1.56974 -2.29424,0 -4.82999,-1.08674 -6.27899,-2.65649 -2.898,-3.01875 -3.50175,-8.45249 -3.50175,-12.31649 0,-7.24499 1.56975,-11.22974 4.347,-13.40324 1.449,-1.08675 3.381,-1.81125 5.19224,-1.81125 1.6905,0 5.5545,0.7245 7.84875,4.83 1.69049,3.1395 1.93199,6.76199 1.93199,10.26374 z"
         inkscape:connector-curvature="0" />
      <path
         id="path953"
         style="font-style:normal;font-variant:normal;font-weight:normal;font-stretch:normal;font-family:'Akzidenz-Grotesk BQ Super';-inkscape-font-specification:'Akzidenz-Grotesk BQ Super';text-align:end;text-anchor:end;stroke-width:3.01874661"
         d="m 408.35354,258.56178 c 0,-9.90149 -6.76199,-14.73149 -9.90149,-16.30123 -3.98474,-2.05275 -9.29774,-2.898 -18.47473,-5.19225 -3.01875,-0.7245 -5.43374,-1.2075 -6.52049,-1.81125 -0.36225,-0.12075 -1.6905,-0.84525 -1.6905,-2.415 0,-0.60374 0.36225,-1.93199 1.81125,-2.65649 1.32825,-0.60375 3.01874,-0.60375 3.50174,-0.60375 7.60725,0 14.24849,4.82999 16.05974,6.03749 l 13.40323,-12.19574 c -2.05274,-1.56974 -3.74324,-2.77724 -6.03749,-3.98474 -6.76199,-3.50175 -16.30123,-5.0715 -23.78773,-5.0715 -14.00698,0 -21.13123,5.19225 -24.75372,10.26374 -1.08675,1.56975 -3.6225,5.67525 -3.6225,11.10899 0,2.6565 0.60375,5.0715 1.6905,7.48649 2.77725,5.91675 7.24499,8.211 13.04099,10.14299 4.95074,1.6905 10.86749,2.898 12.31648,3.1395 4.70925,0.84525 7.4865,0.60375 9.05625,3.01875 0.12075,0.12075 0.483,0.7245 0.483,1.449 0,0.84525 -0.60375,2.41499 -2.415,3.26024 -1.56975,0.7245 -3.50175,0.7245 -4.1055,0.7245 -7.60724,0 -13.76548,-3.86399 -15.81823,-5.31299 -1.2075,-0.966 -2.29425,-1.932 -3.50175,-3.01875 l -14.00698,12.67874 c 2.29424,1.6905 4.46774,3.50174 6.88274,4.95074 7.84874,4.95075 17.38798,7.60725 26.68572,7.60725 3.381,0 20.04448,-0.2415 27.16872,-13.16174 1.81125,-3.26025 2.53575,-6.52049 2.53575,-10.14299 z"
         inkscape:connector-curvature="0" />
    </g>
    <g
       transform="matrix(0.88357939,0,0,0.88357939,30.308653,-0.99155889)"
       id="text868"
       style="font-style:normal;font-weight:normal;font-size:120.74987793px;line-height:0.89999998;font-family:sans-serif;letter-spacing:0px;word-spacing:0px;opacity:0.08800001;fill:#000000;fill-opacity:1;stroke:none;stroke-width:3.01874661"
       aria-label="sds">
      <path
         id="path956"
         style="font-style:normal;font-variant:normal;font-weight:normal;font-stretch:normal;font-family:'Akzidenz-Grotesk BQ Super';-inkscape-font-specification:'Akzidenz-Grotesk BQ Super';text-align:end;text-anchor:end;stroke-width:3.01874661"
         d="m 168.59246,184.42707 c 0,-9.90149 -6.76199,-14.73148 -9.90149,-16.30123 -3.98474,-2.05275 -9.29774,-2.898 -18.47473,-5.19224 -3.01874,-0.7245 -5.43374,-1.2075 -6.52049,-1.81125 -0.36225,-0.12075 -1.6905,-0.84525 -1.6905,-2.415 0,-0.60375 0.36225,-1.932 1.81125,-2.6565 1.32825,-0.60375 3.01875,-0.60375 3.50175,-0.60375 7.60724,0 14.24848,4.83 16.05973,6.0375 l 13.40324,-12.19574 c -2.05275,-1.56975 -3.74325,-2.77725 -6.0375,-3.98475 -6.76199,-3.50174 -16.30123,-5.07149 -23.78772,-5.07149 -14.00699,0 -21.13123,5.19224 -24.75373,10.26374 -1.08675,1.56975 -3.6225,5.67524 -3.6225,11.10899 0,2.65649 0.60375,5.07149 1.6905,7.48649 2.77725,5.91674 7.245,8.21099 13.04099,10.14299 4.95074,1.6905 10.86749,2.898 12.31649,3.1395 4.70924,0.84525 7.48649,0.60375 9.05624,3.01874 0.12075,0.12075 0.483,0.7245 0.483,1.449 0,0.84525 -0.60375,2.415 -2.415,3.26025 -1.56975,0.7245 -3.50175,0.7245 -4.1055,0.7245 -7.60724,0 -13.76548,-3.864 -15.81823,-5.313 -1.2075,-0.966 -2.29425,-1.932 -3.50175,-3.01874 l -14.00698,12.67873 c 2.29425,1.6905 4.46774,3.50175 6.88274,4.95075 7.84874,4.95074 17.38798,7.60724 26.68572,7.60724 3.381,0 20.04448,-0.2415 27.16873,-13.16174 1.81124,-3.26024 2.53574,-6.52049 2.53574,-10.14299 z"
         inkscape:connector-curvature="0" />
      <path
         id="path958"
         style="font-style:normal;font-variant:normal;font-weight:normal;font-stretch:normal;font-family:'Akzidenz-Grotesk BQ Super';-inkscape-font-specification:'Akzidenz-Grotesk BQ Super';text-align:end;text-anchor:end;stroke-width:3.01874661"
         d="m 241.16312,205.3168 v -85.24941 h -24.75373 v 27.04797 c -1.6905,-1.56975 -2.29425,-2.05275 -3.38099,-2.77725 -4.95075,-3.26024 -10.50524,-3.38099 -12.43724,-3.38099 -16.66348,0 -23.30473,12.43724 -25.23673,17.62948 -2.17349,6.03749 -2.17349,11.83349 -2.17349,14.00699 -0.12075,3.62249 0.2415,22.58022 14.61073,30.79121 2.1735,1.32825 6.88274,3.50175 13.52399,3.50175 4.34699,0 9.65999,-0.966 13.16173,-3.50175 1.2075,-0.96599 2.29425,-2.29424 2.53575,-2.53574 l 0.12075,4.46774 z m -24.14998,-31.51572 c 0,4.5885 -0.36225,10.50524 -4.70924,13.52399 -0.60375,0.483 -2.415,1.56975 -4.83,1.56975 -2.29425,0 -4.82999,-1.08675 -6.27899,-2.6565 -2.898,-3.01874 -3.50175,-8.45249 -3.50175,-12.31649 0,-7.24499 1.56975,-11.22973 4.347,-13.40323 1.449,-1.08675 3.38099,-1.81125 5.19224,-1.81125 1.6905,0 5.5545,0.7245 7.84874,4.83 1.6905,3.13949 1.932,6.76199 1.932,10.26373 z"
         inkscape:connector-curvature="0" />
      <path
         id="path960"
         style="font-style:normal;font-variant:normal;font-weight:normal;font-stretch:normal;font-family:'Akzidenz-Grotesk BQ Super';-inkscape-font-specification:'Akzidenz-Grotesk BQ Super';text-align:end;text-anchor:end;stroke-width:3.01874661"
         d="m 309.50732,184.42707 c 0,-9.90149 -6.76199,-14.73148 -9.90149,-16.30123 -3.98475,-2.05275 -9.29774,-2.898 -18.47473,-5.19224 -3.01875,-0.7245 -5.43375,-1.2075 -6.5205,-1.81125 -0.36224,-0.12075 -1.69049,-0.84525 -1.69049,-2.415 0,-0.60375 0.36225,-1.932 1.81124,-2.6565 1.32825,-0.60375 3.01875,-0.60375 3.50175,-0.60375 7.60724,0 14.24849,4.83 16.05973,6.0375 l 13.40324,-12.19574 c -2.05275,-1.56975 -3.74324,-2.77725 -6.03749,-3.98475 -6.762,-3.50174 -16.30124,-5.07149 -23.78773,-5.07149 -14.00698,0 -21.13123,5.19224 -24.75372,10.26374 -1.08675,1.56975 -3.6225,5.67524 -3.6225,11.10899 0,2.65649 0.60375,5.07149 1.6905,7.48649 2.77725,5.91674 7.24499,8.21099 13.04099,10.14299 4.95074,1.6905 10.86748,2.898 12.31648,3.1395 4.70925,0.84525 7.4865,0.60375 9.05624,3.01874 0.12075,0.12075 0.483,0.7245 0.483,1.449 0,0.84525 -0.60375,2.415 -2.41499,3.26025 -1.56975,0.7245 -3.50175,0.7245 -4.1055,0.7245 -7.60724,0 -13.76549,-3.864 -15.81823,-5.313 -1.2075,-0.966 -2.29425,-1.932 -3.50175,-3.01874 l -14.00699,12.67873 c 2.29425,1.6905 4.46775,3.50175 6.88275,4.95075 7.84874,4.95074 17.38798,7.60724 26.68572,7.60724 3.381,0 20.04448,-0.2415 27.16872,-13.16174 1.81125,-3.26024 2.53575,-6.52049 2.53575,-10.14299 z"
         inkscape:connector-curvature="0" />
    </g>
    <g
       transform="matrix(0.88357939,0,0,0.88357939,30.308653,-0.99155889)"
       id="text872"
       style="font-style:normal;font-weight:normal;font-size:120.74987793px;line-height:0.89999998;font-family:sans-serif;letter-spacing:0px;word-spacing:0px;opacity:0.08800001;fill:#000000;fill-opacity:1;stroke:none;stroke-width:3.01874661"
       aria-label="sds">
      <path
         id="path963"
         style="font-style:normal;font-variant:normal;font-weight:normal;font-stretch:normal;font-family:'Akzidenz-Grotesk BQ Super';-inkscape-font-specification:'Akzidenz-Grotesk BQ Super';text-align:end;text-anchor:end;stroke-width:3.01874661"
         d="m 510.16976,258.56178 c 0,-9.90149 -6.76199,-14.73149 -9.90149,-16.30123 -3.98474,-2.05275 -9.29774,-2.898 -18.47473,-5.19225 -3.01874,-0.7245 -5.43374,-1.2075 -6.52049,-1.81125 -0.36225,-0.12075 -1.6905,-0.84525 -1.6905,-2.415 0,-0.60374 0.36225,-1.93199 1.81125,-2.65649 1.32825,-0.60375 3.01875,-0.60375 3.50175,-0.60375 7.60724,0 14.24848,4.82999 16.05973,6.03749 l 13.40324,-12.19574 c -2.05275,-1.56974 -3.74325,-2.77724 -6.0375,-3.98474 -6.76199,-3.50175 -16.30123,-5.0715 -23.78772,-5.0715 -14.00699,0 -21.13123,5.19225 -24.75373,10.26374 -1.08675,1.56975 -3.62249,5.67525 -3.62249,11.10899 0,2.6565 0.60374,5.0715 1.69049,7.48649 2.77725,5.91675 7.245,8.211 13.04099,10.14299 4.95075,1.6905 10.86749,2.898 12.31649,3.1395 4.70924,0.84525 7.48649,0.60375 9.05624,3.01875 0.12075,0.12075 0.483,0.7245 0.483,1.449 0,0.84525 -0.60375,2.41499 -2.415,3.26024 -1.56975,0.7245 -3.50175,0.7245 -4.1055,0.7245 -7.60724,0 -13.76548,-3.86399 -15.81823,-5.31299 -1.2075,-0.966 -2.29425,-1.932 -3.50175,-3.01875 l -14.00698,12.67874 c 2.29425,1.6905 4.46774,3.50174 6.88274,4.95074 7.84874,4.95075 17.38798,7.60725 26.68572,7.60725 3.381,0 20.04448,-0.2415 27.16873,-13.16174 1.81125,-3.26025 2.53574,-6.52049 2.53574,-10.14299 z"
         inkscape:connector-curvature="0" />
      <path
         id="path965"
         style="font-style:normal;font-variant:normal;font-weight:normal;font-stretch:normal;font-family:'Akzidenz-Grotesk BQ Super';-inkscape-font-specification:'Akzidenz-Grotesk BQ Super';text-align:end;text-anchor:end;stroke-width:3.01874661"
         d="m 582.74042,279.45151 v -85.24942 h -24.75373 v 27.04798 c -1.69049,-1.56975 -2.29424,-2.05275 -3.38099,-2.77725 -4.95075,-3.26025 -10.50524,-3.381 -12.43724,-3.381 -16.66348,0 -23.30473,12.43724 -25.23673,17.62948 -2.17349,6.0375 -2.17349,11.83349 -2.17349,14.00699 -0.12075,3.6225 0.2415,22.58023 14.61073,30.79122 2.1735,1.32825 6.88275,3.50175 13.52399,3.50175 4.34699,0 9.65999,-0.966 13.16174,-3.50175 1.20749,-0.966 2.29424,-2.29425 2.53574,-2.53575 l 0.12075,4.46775 z m -24.14998,-31.51572 c 0,4.58849 -0.36225,10.50524 -4.70924,13.52399 -0.60375,0.483 -2.415,1.56974 -4.83,1.56974 -2.29425,0 -4.82999,-1.08674 -6.27899,-2.65649 -2.898,-3.01875 -3.50175,-8.45249 -3.50175,-12.31649 0,-7.24499 1.56975,-11.22974 4.347,-13.40324 1.449,-1.08675 3.38099,-1.81125 5.19224,-1.81125 1.6905,0 5.5545,0.7245 7.84874,4.83 1.6905,3.1395 1.932,6.76199 1.932,10.26374 z"
         inkscape:connector-curvature="0" />
      <path
         id="path967"
         style="font-style:normal;font-variant:normal;font-weight:normal;font-stretch:normal;font-family:'Akzidenz-Grotesk BQ Super';-inkscape-font-specification:'Akzidenz-Grotesk BQ Super';text-align:end;text-anchor:end;stroke-width:3.01874661"
         d="m 651.08462,258.56178 c 0,-9.90149 -6.76199,-14.73149 -9.90149,-16.30123 -3.98475,-2.05275 -9.29774,-2.898 -18.47473,-5.19225 -3.01875,-0.7245 -5.43375,-1.2075 -6.52049,-1.81125 -0.36225,-0.12075 -1.6905,-0.84525 -1.6905,-2.415 0,-0.60374 0.36225,-1.93199 1.81125,-2.65649 1.32824,-0.60375 3.01874,-0.60375 3.50174,-0.60375 7.60724,0 14.24849,4.82999 16.05974,6.03749 l 13.40323,-12.19574 c -2.05275,-1.56974 -3.74324,-2.77724 -6.03749,-3.98474 -6.76199,-3.50175 -16.30124,-5.0715 -23.78773,-5.0715 -14.00698,0 -21.13123,5.19225 -24.75372,10.26374 -1.08675,1.56975 -3.6225,5.67525 -3.6225,11.10899 0,2.6565 0.60375,5.0715 1.6905,7.48649 2.77725,5.91675 7.24499,8.211 13.04099,10.14299 4.95074,1.6905 10.86749,2.898 12.31648,3.1395 4.70925,0.84525 7.4865,0.60375 9.05624,3.01875 0.12075,0.12075 0.483,0.7245 0.483,1.449 0,0.84525 -0.60375,2.41499 -2.41499,3.26024 -1.56975,0.7245 -3.50175,0.7245 -4.1055,0.7245 -7.60724,0 -13.76549,-3.86399 -15.81823,-5.31299 -1.2075,-0.966 -2.29425,-1.932 -3.50175,-3.01875 l -14.00699,12.67874 c 2.29425,1.6905 4.46775,3.50174 6.88275,4.95074 7.84874,4.95075 17.38798,7.60725 26.68572,7.60725 3.381,0 20.04448,-0.2415 27.16872,-13.16174 1.81125,-3.26025 2.53575,-6.52049 2.53575,-10.14299 z"
         inkscape:connector-curvature="0" />
    </g>
    <g
       transform="matrix(0.88357939,0,0,0.88357939,30.308653,-0.99155889)"
       id="text876"
       style="font-style:normal;font-weight:normal;font-size:120.74987793px;line-height:0.89999998;font-family:sans-serif;letter-spacing:0px;word-spacing:0px;opacity:0.08800001;fill:#000000;fill-opacity:1;stroke:none;stroke-width:3.01874661"
       aria-label="sds">
      <path
         id="path970"
         style="font-style:normal;font-variant:normal;font-weight:normal;font-stretch:normal;font-family:'Akzidenz-Grotesk BQ Super';-inkscape-font-specification:'Akzidenz-Grotesk BQ Super';text-align:end;text-anchor:end;stroke-width:3.01874661"
         d="m 411.32351,184.42707 c 0,-9.90149 -6.76199,-14.73148 -9.90149,-16.30123 -3.98474,-2.05275 -9.29774,-2.898 -18.47473,-5.19224 -3.01875,-0.7245 -5.43374,-1.2075 -6.52049,-1.81125 -0.36225,-0.12075 -1.6905,-0.84525 -1.6905,-2.415 0,-0.60375 0.36225,-1.932 1.81125,-2.6565 1.32825,-0.60375 3.01874,-0.60375 3.50174,-0.60375 7.60725,0 14.24849,4.83 16.05974,6.0375 l 13.40323,-12.19574 c -2.05274,-1.56975 -3.74324,-2.77725 -6.03749,-3.98475 -6.76199,-3.50174 -16.30123,-5.07149 -23.78773,-5.07149 -14.00698,0 -21.13122,5.19224 -24.75372,10.26374 -1.08675,1.56975 -3.6225,5.67524 -3.6225,11.10899 0,2.65649 0.60375,5.07149 1.6905,7.48649 2.77725,5.91674 7.24499,8.21099 13.04099,10.14299 4.95074,1.6905 10.86749,2.898 12.31649,3.1395 4.70924,0.84525 7.48649,0.60375 9.05624,3.01874 0.12075,0.12075 0.483,0.7245 0.483,1.449 0,0.84525 -0.60375,2.415 -2.415,3.26025 -1.56975,0.7245 -3.50175,0.7245 -4.1055,0.7245 -7.60724,0 -13.76548,-3.864 -15.81823,-5.313 -1.2075,-0.966 -2.29425,-1.932 -3.50175,-3.01874 l -14.00698,12.67873 c 2.29424,1.6905 4.46774,3.50175 6.88274,4.95075 7.84874,4.95074 17.38798,7.60724 26.68572,7.60724 3.381,0 20.04448,-0.2415 27.16872,-13.16174 1.81125,-3.26024 2.53575,-6.52049 2.53575,-10.14299 z"
         inkscape:connector-curvature="0" />
      <path
         id="path972"
         style="font-style:normal;font-variant:normal;font-weight:normal;font-stretch:normal;font-family:'Akzidenz-Grotesk BQ Super';-inkscape-font-specification:'Akzidenz-Grotesk BQ Super';text-align:end;text-anchor:end;stroke-width:3.01874661"
         d="m 483.89417,205.3168 v -85.24941 h -24.75373 v 27.04797 c -1.6905,-1.56975 -2.29425,-2.05275 -3.381,-2.77725 -4.95074,-3.26024 -10.50523,-3.38099 -12.43723,-3.38099 -16.66349,0 -23.30473,12.43724 -25.23673,17.62948 -2.1735,6.03749 -2.1735,11.83349 -2.1735,14.00699 -0.12075,3.62249 0.2415,22.58022 14.61074,30.79121 2.1735,1.32825 6.88274,3.50175 13.52399,3.50175 4.34699,0 9.65999,-0.966 13.16173,-3.50175 1.2075,-0.96599 2.29425,-2.29424 2.53575,-2.53574 l 0.12075,4.46774 z m -24.14998,-31.51572 c 0,4.5885 -0.36225,10.50524 -4.70924,13.52399 -0.60375,0.483 -2.415,1.56975 -4.83,1.56975 -2.29425,0 -4.83,-1.08675 -6.27899,-2.6565 -2.898,-3.01874 -3.50175,-8.45249 -3.50175,-12.31649 0,-7.24499 1.56975,-11.22973 4.347,-13.40323 1.44899,-1.08675 3.38099,-1.81125 5.19224,-1.81125 1.6905,0 5.55449,0.7245 7.84874,4.83 1.6905,3.13949 1.932,6.76199 1.932,10.26373 z"
         inkscape:connector-curvature="0" />
      <path
         id="path974"
         style="font-style:normal;font-variant:normal;font-weight:normal;font-stretch:normal;font-family:'Akzidenz-Grotesk BQ Super';-inkscape-font-specification:'Akzidenz-Grotesk BQ Super';text-align:end;text-anchor:end;stroke-width:3.01874661"
         d="m 552.23837,184.42707 c 0,-9.90149 -6.762,-14.73148 -9.90149,-16.30123 -3.98475,-2.05275 -9.29774,-2.898 -18.47473,-5.19224 -3.01875,-0.7245 -5.43375,-1.2075 -6.5205,-1.81125 -0.36225,-0.12075 -1.69049,-0.84525 -1.69049,-2.415 0,-0.60375 0.36224,-1.932 1.81124,-2.6565 1.32825,-0.60375 3.01875,-0.60375 3.50175,-0.60375 7.60724,0 14.24849,4.83 16.05973,6.0375 l 13.40324,-12.19574 c -2.05275,-1.56975 -3.74325,-2.77725 -6.03749,-3.98475 -6.762,-3.50174 -16.30124,-5.07149 -23.78773,-5.07149 -14.00699,0 -21.13123,5.19224 -24.75372,10.26374 -1.08675,1.56975 -3.6225,5.67524 -3.6225,11.10899 0,2.65649 0.60375,5.07149 1.6905,7.48649 2.77724,5.91674 7.24499,8.21099 13.04098,10.14299 4.95075,1.6905 10.86749,2.898 12.31649,3.1395 4.70925,0.84525 7.48649,0.60375 9.05624,3.01874 0.12075,0.12075 0.483,0.7245 0.483,1.449 0,0.84525 -0.60375,2.415 -2.415,3.26025 -1.56974,0.7245 -3.50174,0.7245 -4.10549,0.7245 -7.60724,0 -13.76549,-3.864 -15.81824,-5.313 -1.20749,-0.966 -2.29424,-1.932 -3.50174,-3.01874 l -14.00699,12.67873 c 2.29425,1.6905 4.46775,3.50175 6.88275,4.95075 7.84874,4.95074 17.38798,7.60724 26.68572,7.60724 3.38099,0 20.04448,-0.2415 27.16872,-13.16174 1.81125,-3.26024 2.53575,-6.52049 2.53575,-10.14299 z"
         inkscape:connector-curvature="0" />
    </g>
    <g
       transform="matrix(0.88357939,0,0,0.88357939,30.308653,-0.99155889)"
       id="text880"
       style="font-style:normal;font-weight:normal;font-size:120.74987793px;line-height:0.89999998;font-family:sans-serif;letter-spacing:0px;word-spacing:0px;opacity:0.08800001;fill:#000000;fill-opacity:1;stroke:none;stroke-width:3.01874661"
       aria-label="sds">
      <path
         id="path977"
         style="font-style:normal;font-variant:normal;font-weight:normal;font-stretch:normal;font-family:'Akzidenz-Grotesk BQ Super';-inkscape-font-specification:'Akzidenz-Grotesk BQ Super';text-align:end;text-anchor:end;stroke-width:3.01874661"
         d="m 748.22439,258.56178 c 0,-9.90149 -6.76199,-14.73149 -9.90149,-16.30123 -3.98474,-2.05275 -9.29774,-2.898 -18.47473,-5.19225 -3.01875,-0.7245 -5.43374,-1.2075 -6.52049,-1.81125 -0.36225,-0.12075 -1.6905,-0.84525 -1.6905,-2.415 0,-0.60374 0.36225,-1.93199 1.81125,-2.65649 1.32824,-0.60375 3.01874,-0.60375 3.50174,-0.60375 7.60724,0 14.24849,4.82999 16.05974,6.03749 l 13.40323,-12.19574 c -2.05275,-1.56974 -3.74324,-2.77724 -6.03749,-3.98474 -6.76199,-3.50175 -16.30123,-5.0715 -23.78773,-5.0715 -14.00698,0 -21.13123,5.19225 -24.75372,10.26374 -1.08675,1.56975 -3.6225,5.67525 -3.6225,11.10899 0,2.6565 0.60375,5.0715 1.6905,7.48649 2.77725,5.91675 7.24499,8.211 13.04099,10.14299 4.95074,1.6905 10.86749,2.898 12.31648,3.1395 4.70925,0.84525 7.4865,0.60375 9.05625,3.01875 0.12075,0.12075 0.48299,0.7245 0.48299,1.449 0,0.84525 -0.60374,2.41499 -2.41499,3.26024 -1.56975,0.7245 -3.50175,0.7245 -4.1055,0.7245 -7.60724,0 -13.76548,-3.86399 -15.81823,-5.31299 -1.2075,-0.966 -2.29425,-1.932 -3.50175,-3.01875 l -14.00699,12.67874 c 2.29425,1.6905 4.46775,3.50174 6.88275,4.95074 7.84874,4.95075 17.38798,7.60725 26.68572,7.60725 3.381,0 20.04448,-0.2415 27.16872,-13.16174 1.81125,-3.26025 2.53575,-6.52049 2.53575,-10.14299 z"
         inkscape:connector-curvature="0" />
      <path
         id="path979"
         style="font-style:normal;font-variant:normal;font-weight:normal;font-stretch:normal;font-family:'Akzidenz-Grotesk BQ Super';-inkscape-font-specification:'Akzidenz-Grotesk BQ Super';text-align:end;text-anchor:end;stroke-width:3.01874661"
         d="m 820.79504,279.45151 v -85.24942 h -24.75372 v 27.04798 c -1.6905,-1.56975 -2.29425,-2.05275 -3.381,-2.77725 -4.95074,-3.26025 -10.50524,-3.381 -12.43723,-3.381 -16.66349,0 -23.30473,12.43724 -25.23673,17.62948 -2.1735,6.0375 -2.1735,11.83349 -2.1735,14.00699 -0.12075,3.6225 0.2415,22.58023 14.61074,30.79122 2.1735,1.32825 6.88274,3.50175 13.52399,3.50175 4.34699,0 9.65999,-0.966 13.16173,-3.50175 1.2075,-0.966 2.29425,-2.29425 2.53575,-2.53575 l 0.12075,4.46775 z m -24.14997,-31.51572 c 0,4.58849 -0.36225,10.50524 -4.70925,13.52399 -0.60375,0.483 -2.41499,1.56974 -4.82999,1.56974 -2.29425,0 -4.83,-1.08674 -6.27899,-2.65649 -2.898,-3.01875 -3.50175,-8.45249 -3.50175,-12.31649 0,-7.24499 1.56975,-11.22974 4.34699,-13.40324 1.449,-1.08675 3.381,-1.81125 5.19225,-1.81125 1.6905,0 5.55449,0.7245 7.84874,4.83 1.6905,3.1395 1.932,6.76199 1.932,10.26374 z"
         inkscape:connector-curvature="0" />
      <path
         id="path981"
         style="font-style:normal;font-variant:normal;font-weight:normal;font-stretch:normal;font-family:'Akzidenz-Grotesk BQ Super';-inkscape-font-specification:'Akzidenz-Grotesk BQ Super';text-align:end;text-anchor:end;stroke-width:3.01874661"
         d="m 889.13925,258.56178 c 0,-9.90149 -6.762,-14.73149 -9.90149,-16.30123 -3.98475,-2.05275 -9.29774,-2.898 -18.47473,-5.19225 -3.01875,-0.7245 -5.43375,-1.2075 -6.5205,-1.81125 -0.36225,-0.12075 -1.6905,-0.84525 -1.6905,-2.415 0,-0.60374 0.36225,-1.93199 1.81125,-2.65649 1.32825,-0.60375 3.01875,-0.60375 3.50175,-0.60375 7.60724,0 14.24848,4.82999 16.05973,6.03749 L 887.328,223.42356 c -2.05275,-1.56974 -3.74325,-2.77724 -6.0375,-3.98474 -6.76199,-3.50175 -16.30123,-5.0715 -23.78772,-5.0715 -14.00699,0 -21.13123,5.19225 -24.75373,10.26374 -1.08674,1.56975 -3.62249,5.67525 -3.62249,11.10899 0,2.6565 0.60375,5.0715 1.6905,7.48649 2.77724,5.91675 7.24499,8.211 13.04098,10.14299 4.95075,1.6905 10.86749,2.898 12.31649,3.1395 4.70925,0.84525 7.48649,0.60375 9.05624,3.01875 0.12075,0.12075 0.483,0.7245 0.483,1.449 0,0.84525 -0.60375,2.41499 -2.415,3.26024 -1.56975,0.7245 -3.50174,0.7245 -4.10549,0.7245 -7.60725,0 -13.76549,-3.86399 -15.81824,-5.31299 -1.2075,-0.966 -2.29424,-1.932 -3.50174,-3.01875 l -14.00699,12.67874 c 2.29425,1.6905 4.46775,3.50174 6.88274,4.95074 7.84875,4.95075 17.38799,7.60725 26.68573,7.60725 3.38099,0 20.04448,-0.2415 27.16872,-13.16174 1.81125,-3.26025 2.53575,-6.52049 2.53575,-10.14299 z"
         inkscape:connector-curvature="0" />
    </g>
    <g
       transform="matrix(0.88357939,0,0,0.88357939,30.308653,-0.99155889)"
       id="text884"
       style="font-style:normal;font-weight:normal;font-size:120.74987793px;line-height:0.89999998;font-family:sans-serif;letter-spacing:0px;word-spacing:0px;opacity:0.08800001;fill:#000000;fill-opacity:1;stroke:none;stroke-width:3.01874661"
       aria-label="sds">
      <path
         id="path984"
         style="font-style:normal;font-variant:normal;font-weight:normal;font-stretch:normal;font-family:'Akzidenz-Grotesk BQ Super';-inkscape-font-specification:'Akzidenz-Grotesk BQ Super';text-align:end;text-anchor:end;stroke-width:3.01874661"
         d="m 649.3782,184.42707 c 0,-9.90149 -6.76199,-14.73148 -9.90149,-16.30123 -3.98475,-2.05275 -9.29774,-2.898 -18.47473,-5.19224 -3.01875,-0.7245 -5.43375,-1.2075 -6.5205,-1.81125 -0.36224,-0.12075 -1.69049,-0.84525 -1.69049,-2.415 0,-0.60375 0.36225,-1.932 1.81124,-2.6565 1.32825,-0.60375 3.01875,-0.60375 3.50175,-0.60375 7.60724,0 14.24849,4.83 16.05973,6.0375 l 13.40324,-12.19574 c -2.05275,-1.56975 -3.74324,-2.77725 -6.03749,-3.98475 -6.762,-3.50174 -16.30124,-5.07149 -23.78773,-5.07149 -14.00698,0 -21.13123,5.19224 -24.75372,10.26374 -1.08675,1.56975 -3.6225,5.67524 -3.6225,11.10899 0,2.65649 0.60375,5.07149 1.6905,7.48649 2.77725,5.91674 7.24499,8.21099 13.04099,10.14299 4.95074,1.6905 10.86748,2.898 12.31648,3.1395 4.70925,0.84525 7.4865,0.60375 9.05624,3.01874 0.12075,0.12075 0.483,0.7245 0.483,1.449 0,0.84525 -0.60375,2.415 -2.41499,3.26025 -1.56975,0.7245 -3.50175,0.7245 -4.1055,0.7245 -7.60724,0 -13.76549,-3.864 -15.81823,-5.313 -1.2075,-0.966 -2.29425,-1.932 -3.50175,-3.01874 l -14.00699,12.67873 c 2.29425,1.6905 4.46775,3.50175 6.88275,4.95075 7.84874,4.95074 17.38798,7.60724 26.68572,7.60724 3.381,0 20.04448,-0.2415 27.16872,-13.16174 1.81125,-3.26024 2.53575,-6.52049 2.53575,-10.14299 z"
         inkscape:connector-curvature="0" />
      <path
         id="path986"
         style="font-style:normal;font-variant:normal;font-weight:normal;font-stretch:normal;font-family:'Akzidenz-Grotesk BQ Super';-inkscape-font-specification:'Akzidenz-Grotesk BQ Super';text-align:end;text-anchor:end;stroke-width:3.01874661"
         d="m 721.94885,205.3168 v -85.24941 h -24.75372 v 27.04797 c -1.6905,-1.56975 -2.29425,-2.05275 -3.381,-2.77725 -4.95074,-3.26024 -10.50524,-3.38099 -12.43724,-3.38099 -16.66348,0 -23.30472,12.43724 -25.23672,17.62948 -2.1735,6.03749 -2.1735,11.83349 -2.1735,14.00699 -0.12075,3.62249 0.2415,22.58022 14.61074,30.79121 2.1735,1.32825 6.88274,3.50175 13.52398,3.50175 4.347,0 9.65999,-0.966 13.16174,-3.50175 1.2075,-0.96599 2.29425,-2.29424 2.53575,-2.53574 l 0.12075,4.46774 z m -24.14997,-31.51572 c 0,4.5885 -0.36225,10.50524 -4.70925,13.52399 -0.60375,0.483 -2.41499,1.56975 -4.82999,1.56975 -2.29425,0 -4.83,-1.08675 -6.279,-2.6565 -2.89799,-3.01874 -3.50174,-8.45249 -3.50174,-12.31649 0,-7.24499 1.56975,-11.22973 4.34699,-13.40323 1.449,-1.08675 3.381,-1.81125 5.19225,-1.81125 1.6905,0 5.55449,0.7245 7.84874,4.83 1.6905,3.13949 1.932,6.76199 1.932,10.26373 z"
         inkscape:connector-curvature="0" />
      <path
         id="path988"
         style="font-style:normal;font-variant:normal;font-weight:normal;font-stretch:normal;font-family:'Akzidenz-Grotesk BQ Super';-inkscape-font-specification:'Akzidenz-Grotesk BQ Super';text-align:end;text-anchor:end;stroke-width:3.01874661"
         d="m 790.29306,184.42707 c 0,-9.90149 -6.762,-14.73148 -9.90149,-16.30123 -3.98475,-2.05275 -9.29775,-2.898 -18.47474,-5.19224 -3.01874,-0.7245 -5.43374,-1.2075 -6.52049,-1.81125 -0.36225,-0.12075 -1.6905,-0.84525 -1.6905,-2.415 0,-0.60375 0.36225,-1.932 1.81125,-2.6565 1.32825,-0.60375 3.01875,-0.60375 3.50175,-0.60375 7.60724,0 14.24848,4.83 16.05973,6.0375 l 13.40324,-12.19574 c -2.05275,-1.56975 -3.74325,-2.77725 -6.0375,-3.98475 -6.76199,-3.50174 -16.30123,-5.07149 -23.78772,-5.07149 -14.00699,0 -21.13123,5.19224 -24.75373,10.26374 -1.08675,1.56975 -3.62249,5.67524 -3.62249,11.10899 0,2.65649 0.60375,5.07149 1.69049,7.48649 2.77725,5.91674 7.245,8.21099 13.04099,10.14299 4.95075,1.6905 10.86749,2.898 12.31649,3.1395 4.70924,0.84525 7.48649,0.60375 9.05624,3.01874 0.12075,0.12075 0.483,0.7245 0.483,1.449 0,0.84525 -0.60375,2.415 -2.415,3.26025 -1.56975,0.7245 -3.50174,0.7245 -4.10549,0.7245 -7.60725,0 -13.76549,-3.864 -15.81824,-5.313 -1.2075,-0.966 -2.29425,-1.932 -3.50174,-3.01874 l -14.00699,12.67873 c 2.29425,1.6905 4.46774,3.50175 6.88274,4.95075 7.84874,4.95074 17.38798,7.60724 26.68573,7.60724 3.38099,0 20.04448,-0.2415 27.16872,-13.16174 1.81125,-3.26024 2.53575,-6.52049 2.53575,-10.14299 z"
         inkscape:connector-curvature="0" />
    </g>
  </g>
</svg>
