<?xml version="1.0" encoding="UTF-8" standalone="no"?>
<svg
   xmlns:dc="http://purl.org/dc/elements/1.1/"
   xmlns:cc="http://creativecommons.org/ns#"
   xmlns:rdf="http://www.w3.org/1999/02/22-rdf-syntax-ns#"
   xmlns:svg="http://www.w3.org/2000/svg"
   xmlns="http://www.w3.org/2000/svg"
   xmlns:sodipodi="http://sodipodi.sourceforge.net/DTD/sodipodi-0.dtd"
   xmlns:inkscape="http://www.inkscape.org/namespaces/inkscape"
   id="abc544d7-1a04-40cc-926f-7ea71d989639"
   data-name="Layer 1"
   width="886"
   height="654.3011"
   viewBox="0 0 886 654.3011"
   version="1.1"
   sodipodi:docname="environment_iaus.svg"
   inkscape:version="0.92.4 5da689c313, 2019-01-14">
  <metadata
     id="metadata119">
    <rdf:RDF>
      <cc:Work
         rdf:about="">
        <dc:format>image/svg+xml</dc:format>
        <dc:type
           rdf:resource="http://purl.org/dc/dcmitype/StillImage" />
      </cc:Work>
    </rdf:RDF>
  </metadata>
  <defs
     id="defs117" />
  <sodipodi:namedview
     pagecolor="#ffffff"
     bordercolor="#666666"
     borderopacity="1"
     objecttolerance="10"
     gridtolerance="10"
     guidetolerance="10"
     inkscape:pageopacity="0"
     inkscape:pageshadow="2"
     inkscape:window-width="683"
     inkscape:window-height="741"
     id="namedview115"
     showgrid="false"
     inkscape:zoom="0.18034511"
     inkscape:cx="387.39797"
     inkscape:cy="412.61867"
     inkscape:window-x="683"
     inkscape:window-y="0"
     inkscape:window-maximized="0"
     inkscape:current-layer="abc544d7-1a04-40cc-926f-7ea71d989639"
     inkscape:snap-page="true" />
  <title
     id="title2">environment1</title>
  <path
     style="fill:#9e7d5d;fill-opacity:1"
     inkscape:connector-curvature="0"
     d="m 508.30279,503.6849 c 0,0 -117.66268,-14.11952 -158.84462,-36.47543 C 308.27623,444.85356 2.3533,434.26392 2.3533,503.6849 c 0,69.42098 351.81137,100.01328 351.81137,100.01328 l 184.73042,-10.58963 z"
     id="path4" />
  <path
     style="opacity:0.1"
     inkscape:connector-curvature="0"
     d="m 508.30279,503.6849 c 0,0 -117.66268,-14.11952 -158.84462,-36.47543 C 308.27623,444.85356 2.3533,434.26392 2.3533,503.6849 c 0,69.42098 351.81137,100.01328 351.81137,100.01328 l 184.73042,-10.58963 z"
     id="path6" />
  <path
     style="fill:#8e73b0;fill-opacity:1"
     inkscape:connector-curvature="0"
     d="M 474.18061,490.742 498.88977,562.51624 886,567.22275 V 461.32633 c 0,0 -148.255,-34.12218 -265.91766,38.82869 0,0 -138.84197,-16.47278 -145.90173,-9.41302 z"
     id="path8" />
  <path
     style="opacity:0.1"
     inkscape:connector-curvature="0"
     d="M 474.18061,490.62631 498.88977,562.40055 886,567.10706 V 461.21064 c 0,0 -148.255,-34.12217 -265.91766,38.82869 0,0 -138.84197,-16.47278 -145.90173,-9.41302 z"
     id="path10" />
  <path
     style="fill:#524441;fill-opacity:1"
     inkscape:connector-curvature="0"
     d="m 31.5958,460.73802 c 0,4.01013 8.9929,6.98746 9.8771,10.85578 0.877,3.837 -4.466,9.67153 -2.7754,13.33593 a 72.56315,72.56315 0 0 0 6.17163,10.73274 c 2.21493,3.17137 9.05694,2.70824 11.86227,5.68227 a 94.31858,94.31858 0 0 0 8.71239,7.57632 c 2.97685,2.47558 7.00983,2.995 10.3949,5.27405 3.21855,2.16694 2.82908,10.11566 6.38943,12.089 3.40209,1.88559 8.60988,0.3689 12.30036,2.0638 3.54222,1.6268 5.41036,7.51078 9.19734,8.94966 3.65224,1.38768 8.17251,0.79041 12.03369,1.99233 3.737,1.16328 7.91819,0.97444 11.834,1.95379 3.8025,0.951 6.70671,6.651 10.66232,7.41945 3.854,0.74876 8.3706,-1.24829 12.35568,-0.68116 3.89167,0.55383 8.41763,-4.37162 12.421,-3.9988 3.91842,0.36491 7.61086,2.64509 11.62382,2.8293 3.93486,0.18062 7.825,1.91354 11.839,1.91354 4.01326,0 8.155,3.76516 12.0891,3.58461 4.01286,-0.18416 7.64576,-5.89119 11.56409,-6.25606 4.00373,-0.37281 8.7793,5.58855 12.67133,5.03469 3.98495,-0.56708 7.14123,-6.40236 10.99514,-7.15107 3.95666,-0.76866 9.06677,3.40179 12.87023,2.45052 3.9163,-0.97949 6.24086,-7.76777 9.97832,-8.93124 3.86105,-1.20193 8.64707,0.42607 12.29918,-0.96161 3.78762,-1.43918 8.40158,-1.20794 11.94434,-2.83511 3.69044,-1.695 6.33948,-5.70566 9.74152,-7.59135 3.56035,-1.97344 5.20212,-6.86749 8.42064,-9.03457 3.38534,-2.2794 8.543,-1.98843 11.52,-4.46441 3.143,-2.614 9.03152,-2.75028 11.684,-5.56266 2.80531,-2.97446 3.94048,-7.96872 6.15524,-11.14054 2.3325,-3.34045 -2.24541,-10.40268 -0.61691,-13.93333 1.68988,-3.66373 8.75561,-5.15233 9.63228,-8.98856 a 56.43529,56.43529 0 0 0 1.38412,-12.20727 c 0,-4.01013 -6.04275,-7.07505 -6.927,-10.94337 -0.87705,-3.837 3.5706,-9.34765 1.88,-13.012 -1.62909,-3.53111 -1.4209,-8.95885 -3.75419,-12.29969 -2.21492,-3.17137 -7.74247,-4.41466 -10.54781,-7.38869 -2.65244,-2.81195 -7.39972,-3.59649 -10.54257,-6.21012 -2.97685,-2.47558 -2.59756,-9.94153 -5.98263,-12.22058 -3.21855,-2.16693 -7.71233,-3.15553 -11.27269,-5.12883 -3.40209,-1.88559 -8.2166,-1.568 -11.90708,-3.26286 -3.54222,-1.62681 -9.09051,1.57878 -12.87749,0.1399 -3.65223,-1.38768 -6.61443,-4.42066 -10.47561,-5.62258 -3.737,-1.16327 -5.49295,-10.03477 -9.40878,-11.01411 -3.8025,-0.951 -8.48123,0.62756 -12.43684,-0.14094 -3.854,-0.74875 -9.03982,6.25065 -13.0249,5.68353 -3.89167,-0.55383 -6.80233,-9.89764 -10.80568,-10.27046 -3.91843,-0.36492 -8.33653,4.4746 -12.34949,4.29039 -3.93486,-0.18061 -7.88586,2.65493 -11.89989,2.65493 -4.01325,0 -8.012,-3.89163 -11.9461,-3.71108 -4.01286,0.18417 -7.55113,5.3271 -11.46946,5.692 -4.00373,0.37281 -8.91865,-7.44985 -12.81068,-6.896 -3.98495,0.56708 -7.06419,6.61418 -10.91811,7.36288 -3.95665,0.76866 -8.91232,-2.98574 -12.71579,-2.03447 -3.9163,0.97948 -6.27257,7.40675 -10.01,8.57021 -3.861,1.20194 -6.23986,5.73621 -9.892,7.12389 -3.78763,1.43917 -10.82321,-5.29424 -14.366,-3.66707 -3.69044,1.695 -6.878,4.62825 -10.28005,6.51394 -3.56035,1.97344 -9.22033,0.981 -12.43884,3.14809 -3.38534,2.2794 -4.21769,8.39757 -7.1947,10.87355 -3.143,2.614 -8.32722,3.401 -10.97967,6.21338 -2.80531,2.97446 -3.195,8.304 -5.40974,11.47584 -2.33251,3.34045 -2.25969,7.96873 -3.88816,11.49938 -1.6899,3.66373 -6.2017,6.43485 -7.0784,10.27108 -0.8837,3.86735 -3.5018,8.30066 -3.5018,12.30982 z"
     id="path12" />
  <path
     style="fill:#9e7d5d;fill-opacity:1"
     inkscape:connector-curvature="0"
     d="m 455.35458,534.2772 c 0,0 -132.95883,-68.24436 -218.85258,-42.35857 -85.89375,25.88579 -205.9097,-18.826 -220.0292,-3.52988 -14.1195,15.29612 -34.1222,180.0239 135.31207,189.43692 169.43426,9.41302 314.15936,-28.23905 314.15936,-28.23905 z"
     id="path14" />
  <path
     style="fill:#8e73b0;fill-opacity:1"
     inkscape:connector-curvature="0"
     d="m 486.66606,527.00926 c 0,0 -52.49076,-3.32171 -50.13751,15.50429 2.35325,18.826 4.70651,164.72776 18.826,168.25764 14.11949,3.52988 125.89907,3.52988 171.78752,3.52988 H 886 V 488.72691 c 0,0 -183.55378,-10.9278 -275.33068,34.96064 0,0 -110.34119,-1.593 -124.00326,3.32171 z"
     id="path16" />
  <g
     id="g1155"
     transform="translate(0,60)">
    <path
       id="path18"
       stroke-miterlimit="10"
       d="m 240.76062,114.17924 a 27.04128,27.04128 0 0 1 23.30891,16.29741 c 5.82841,14.08872 -1.67611,30.638 -12.94175,40.91165 -11.26564,10.27365 -25.737,16.146 -38.88553,23.86474 -17.6606,10.3676 -33.5301,24.75954 -42.36669,43.23381 -8.83659,18.47427 -9.77646,41.35854 0.61056,59.00773 9.64093,16.38147 27.17132,26.18572 43.89076,35.22786"
       inkscape:connector-curvature="0"
       style="fill:none;stroke:#3f3d56;stroke-miterlimit:10" />
    <path
       id="path20"
       stroke-miterlimit="10"
       d="m 193.69554,28.28548 a 27.0413,27.0413 0 0 1 23.30892,16.29742 c 5.82841,14.08871 -1.67611,30.638 -12.94175,40.91164 -11.26564,10.27364 -25.73705,16.146 -38.88553,23.86474 -17.66061,10.3676 -33.5301,24.75955 -42.3667,43.23382 -8.8366,18.47427 -9.77645,41.35853 0.61057,59.00772 9.64092,16.38147 27.17132,26.18572 43.89076,35.22786"
       inkscape:connector-curvature="0"
       style="fill:none;stroke:#3f3d56;stroke-miterlimit:10" />
    <path
       id="path22"
       stroke-miterlimit="10"
       d="m 38.9494,48.04055 a 27.04127,27.04127 0 0 1 28.40772,-1.38242 c 13.23342,7.57224 17.43052,25.25222 14.81179,40.27235 -2.61873,15.02013 -10.46668,28.52256 -16.13823,42.67515 -7.61783,19.00927 -11.35579,40.10422 -7.03358,60.12177 4.32221,20.01755 17.58823,38.688 36.60588,46.28493 17.65163,7.05125 37.51521,4.072 56.271,0.98658"
       inkscape:connector-curvature="0"
       style="fill:none;stroke:#3f3d56;stroke-miterlimit:10" />
  </g>
  <g
     id="g1175"
     style="fill:#40bd66;fill-opacity:1"
     transform="translate(0,60)">
    <ellipse
       transform="scale(-1,1)"
       id="ellipse24"
       ry="13.71611"
       rx="28.23904"
       cy="211.8894"
       cx="-175.31741"
       style="fill:#40bd66;fill-opacity:1" />
    <ellipse
       transform="scale(-1,1)"
       id="ellipse32"
       ry="13.71611"
       rx="28.23904"
       cy="251.89473"
       cx="-104.71982"
       style="fill:#40bd66;fill-opacity:1" />
    <ellipse
       transform="scale(-1,1)"
       id="ellipse36"
       ry="13.71611"
       rx="28.23904"
       cy="122.46577"
       cx="-110.60294"
       style="fill:#40bd66;fill-opacity:1" />
    <ellipse
       transform="scale(-1,1)"
       id="ellipse40"
       ry="13.71611"
       rx="28.23904"
       cy="114.22939"
       cx="-181.20053"
       style="fill:#40bd66;fill-opacity:1" />
    <ellipse
       transform="scale(-1,1)"
       id="ellipse44"
       ry="13.71611"
       rx="28.23904"
       cy="84.813721"
       cx="-149.43161"
       style="fill:#40bd66;fill-opacity:1" />
    <ellipse
       transform="scale(-1,1)"
       id="ellipse48"
       ry="13.71611"
       rx="28.23904"
       cy="90.696854"
       cx="-80.010651"
       style="fill:#40bd66;fill-opacity:1" />
    <ellipse
       transform="scale(-1,1)"
       id="ellipse52"
       ry="13.71611"
       rx="28.23904"
       cy="129.52554"
       cx="-28.239044"
       style="fill:#40bd66;fill-opacity:1" />
    <ellipse
       transform="scale(-1,1)"
       id="ellipse56"
       ry="13.71611"
       rx="28.23904"
       cy="61.281181"
       cx="-210.61624"
       style="fill:#40bd66;fill-opacity:1" />
    <ellipse
       transform="scale(-1,1)"
       id="ellipse60"
       ry="13.71611"
       rx="28.23904"
       cy="16.569361"
       cx="-192.96683"
       style="fill:#40bd66;fill-opacity:1" />
    <ellipse
       transform="scale(-1,1)"
       id="ellipse64"
       ry="13.71611"
       rx="28.23904"
       cy="49.514912"
       cx="-29.41568"
       style="fill:#40bd66;fill-opacity:1" />
    <ellipse
       transform="scale(-1,1)"
       id="ellipse68"
       ry="13.71611"
       rx="28.23904"
       cy="157.76459"
       cx="-289.45023"
       style="fill:#40bd66;fill-opacity:1" />
    <ellipse
       transform="scale(-1,1)"
       id="ellipse72"
       ry="13.71611"
       rx="28.23904"
       cy="150.70482"
       cx="-191.79019"
       style="fill:#40bd66;fill-opacity:1" />
    <ellipse
       transform="scale(-1,1)"
       id="ellipse76"
       ry="13.71611"
       rx="28.23904"
       cy="161.29446"
       cx="-63.537872"
       style="fill:#40bd66;fill-opacity:1" />
    <ellipse
       transform="scale(-1,1)"
       id="ellipse80"
       ry="13.71611"
       rx="28.23904"
       cy="166.00098"
       cx="-131.78226"
       style="fill:#40bd66;fill-opacity:1" />
    <ellipse
       transform="scale(-1,1)"
       id="ellipse84"
       ry="13.71611"
       rx="28.23904"
       cy="48.33828"
       cx="-127.07571"
       style="fill:#40bd66;fill-opacity:1" />
    <ellipse
       transform="scale(-1,1)"
       id="ellipse92"
       ry="13.71611"
       rx="28.23904"
       cy="174.23737"
       cx="-231.7955"
       style="fill:#40bd66;fill-opacity:1" />
    <ellipse
       transform="scale(-1,1)"
       id="ellipse28"
       ry="13.71611"
       rx="28.23904"
       cy="200.12315"
       cx="-114.13284"
       style="fill:#40bd66;fill-opacity:1" />
    <ellipse
       transform="scale(-1,1)"
       id="ellipse88"
       ry="13.71611"
       rx="28.23904"
       cy="121.28915"
       cx="-248.26828"
       style="fill:#40bd66;fill-opacity:1" />
  </g>
  <g
     id="g1150"
     transform="translate(0,60)">
    <ellipse
       transform="scale(-1,1)"
       id="ellipse90"
       stroke-miterlimit="10"
       ry="13.71611"
       rx="28.23904"
       cy="118.93589"
       cx="-251.79819"
       style="fill:none;stroke:#3f3d56;stroke-miterlimit:10" />
    <ellipse
       transform="scale(-1,1)"
       id="ellipse30"
       stroke-miterlimit="10"
       ry="13.71611"
       rx="28.23904"
       cy="197.7699"
       cx="-117.66269"
       style="fill:none;stroke:#3f3d56;stroke-miterlimit:10" />
    <ellipse
       transform="scale(-1,1)"
       id="ellipse26"
       stroke-miterlimit="10"
       ry="13.71611"
       rx="28.23904"
       cy="209.53616"
       cx="-178.84732"
       style="fill:none;stroke:#3f3d56;stroke-miterlimit:10" />
    <ellipse
       transform="scale(-1,1)"
       id="ellipse34"
       stroke-miterlimit="10"
       ry="13.71611"
       rx="28.23904"
       cy="249.54147"
       cx="-108.24973"
       style="fill:none;stroke:#3f3d56;stroke-miterlimit:10" />
    <ellipse
       transform="scale(-1,1)"
       id="ellipse38"
       stroke-miterlimit="10"
       ry="13.71611"
       rx="28.23904"
       cy="120.11252"
       cx="-114.13284"
       style="fill:none;stroke:#3f3d56;stroke-miterlimit:10" />
    <ellipse
       transform="scale(-1,1)"
       id="ellipse42"
       stroke-miterlimit="10"
       ry="13.71611"
       rx="28.23904"
       cy="111.87613"
       cx="-184.73044"
       style="fill:none;stroke:#3f3d56;stroke-miterlimit:10" />
    <ellipse
       transform="scale(-1,1)"
       id="ellipse46"
       stroke-miterlimit="10"
       ry="13.71611"
       rx="28.23904"
       cy="82.460457"
       cx="-152.96152"
       style="fill:none;stroke:#3f3d56;stroke-miterlimit:10" />
    <ellipse
       transform="scale(-1,1)"
       id="ellipse50"
       stroke-miterlimit="10"
       ry="13.71611"
       rx="28.23904"
       cy="88.343597"
       cx="-83.540558"
       style="fill:none;stroke:#3f3d56;stroke-miterlimit:10" />
    <ellipse
       transform="scale(-1,1)"
       id="ellipse54"
       stroke-miterlimit="10"
       ry="13.71611"
       rx="28.23904"
       cy="127.17228"
       cx="-31.768951"
       style="fill:none;stroke:#3f3d56;stroke-miterlimit:10" />
    <ellipse
       transform="scale(-1,1)"
       id="ellipse58"
       stroke-miterlimit="10"
       ry="13.71611"
       rx="28.23904"
       cy="58.927929"
       cx="-214.14609"
       style="fill:none;stroke:#3f3d56;stroke-miterlimit:10" />
    <ellipse
       transform="scale(-1,1)"
       id="ellipse62"
       stroke-miterlimit="10"
       ry="13.71611"
       rx="28.23904"
       cy="14.21611"
       cx="-196.49673"
       style="fill:none;stroke:#3f3d56;stroke-miterlimit:10" />
    <ellipse
       transform="scale(-1,1)"
       id="ellipse66"
       stroke-miterlimit="10"
       ry="13.71611"
       rx="28.23904"
       cy="47.161659"
       cx="-32.945587"
       style="fill:none;stroke:#3f3d56;stroke-miterlimit:10" />
    <ellipse
       transform="scale(-1,1)"
       id="ellipse70"
       stroke-miterlimit="10"
       ry="13.71611"
       rx="28.23904"
       cy="155.41133"
       cx="-292.98013"
       style="fill:none;stroke:#3f3d56;stroke-miterlimit:10" />
    <ellipse
       transform="scale(-1,1)"
       id="ellipse74"
       stroke-miterlimit="10"
       ry="13.71611"
       rx="28.23904"
       cy="148.35156"
       cx="-195.3201"
       style="fill:none;stroke:#3f3d56;stroke-miterlimit:10" />
    <ellipse
       transform="scale(-1,1)"
       id="ellipse78"
       stroke-miterlimit="10"
       ry="13.71611"
       rx="28.23904"
       cy="158.94121"
       cx="-67.06778"
       style="fill:none;stroke:#3f3d56;stroke-miterlimit:10" />
    <ellipse
       transform="scale(-1,1)"
       id="ellipse82"
       stroke-miterlimit="10"
       ry="13.71611"
       rx="28.23904"
       cy="163.64771"
       cx="-135.3121"
       style="fill:none;stroke:#3f3d56;stroke-miterlimit:10" />
    <ellipse
       transform="scale(-1,1)"
       id="ellipse86"
       stroke-miterlimit="10"
       ry="13.71611"
       rx="28.23904"
       cy="45.985031"
       cx="-130.60562"
       style="fill:none;stroke:#3f3d56;stroke-miterlimit:10" />
    <ellipse
       transform="scale(-1,1)"
       id="ellipse94"
       stroke-miterlimit="10"
       ry="13.71611"
       rx="28.23904"
       cy="171.88409"
       cx="-235.32541"
       style="fill:none;stroke:#3f3d56;stroke-miterlimit:10" />
  </g>
  <g
     style="opacity:0.3"
     id="g100"
     transform="matrix(-1,0,0,1,886.00003,60)">
    <ellipse
       style="fill:#57b894"
       cx="806.26874"
       cy="387.36508"
       rx="14.7942"
       ry="6.4068398"
       transform="rotate(-60.79941,623.28463,459.86694)"
       id="ellipse96" />
    <ellipse
       style="fill:none;stroke:#3f3d56;stroke-miterlimit:10"
       cx="804.40704"
       cy="388.44308"
       rx="14.7942"
       ry="6.4068398"
       transform="rotate(-60.79941,621.4229,460.94494)"
       stroke-miterlimit="10"
       id="ellipse98" />
  </g>
  <g
     style="opacity:0.3"
     id="g106"
     transform="matrix(-1,0,0,1,886.00003,60)">
    <ellipse
       style="fill:#57b894"
       cx="948.03217"
       cy="414.81604"
       rx="6.4068398"
       ry="14.7942"
       transform="rotate(-48.17218,732.40553,529.11963)"
       id="ellipse102" />
    <ellipse
       style="fill:none;stroke:#3f3d56;stroke-miterlimit:10"
       cx="947.38727"
       cy="412.7637"
       rx="6.4068398"
       ry="14.7942"
       transform="rotate(-48.17218,731.7606,527.06727)"
       stroke-miterlimit="10"
       id="ellipse104" />
  </g>
  <g
     style="opacity:0.3"
     id="g112"
     transform="matrix(-1,0,0,1,886.00003,60)">
    <ellipse
       style="fill:#57b894"
       cx="816.25"
       cy="340.68854"
       rx="6.4068398"
       ry="14.7942"
       transform="rotate(-48.17218,600.62334,454.99213)"
       id="ellipse108" />
    <ellipse
       style="fill:none;stroke:#3f3d56;stroke-miterlimit:10"
       cx="815.60504"
       cy="338.6362"
       rx="6.4068398"
       ry="14.7942"
       transform="rotate(-48.17218,599.97841,452.93979)"
       stroke-miterlimit="10"
       id="ellipse110" />
  </g>
  <rect
     style="opacity:1;fill:#ffffff;fill-opacity:0.41807915;fill-rule:nonzero;stroke:none;stroke-width:2.33964753;stroke-linecap:round;stroke-linejoin:miter;stroke-miterlimit:4;stroke-dasharray:none;stroke-opacity:1;paint-order:normal"
     id="rect1179"
     width="886"
     height="654.30109"
     x="1.2053462e-07"
     y="2.7340448e-14" />
</svg>
